<?xml version="1.0" encoding="UTF-8"?>
<svg xmlns="http://www.w3.org/2000/svg" xmlns:xlink="http://www.w3.org/1999/xlink" viewBox="0 0 10.16 13.47">
  <defs>
    <style>
      .cls-1 {
        filter: url(#luminosity-noclip-11);
      }

      .cls-2 {
        fill: url(#linear-gradient-12);
      }

      .cls-2, .cls-3, .cls-4, .cls-5, .cls-6, .cls-7, .cls-8, .cls-9, .cls-10, .cls-11, .cls-12, .cls-13, .cls-14, .cls-15, .cls-16, .cls-17, .cls-18, .cls-19, .cls-20, .cls-21, .cls-22, .cls-23, .cls-24, .cls-25, .cls-26, .cls-27, .cls-28, .cls-29, .cls-30, .cls-31, .cls-32, .cls-33, .cls-34, .cls-35, .cls-36, .cls-37, .cls-38, .cls-39, .cls-40, .cls-41 {
        stroke-width: 0px;
      }

      .cls-3 {
        fill: url(#linear-gradient-17);
      }

      .cls-4 {
        fill: url(#linear-gradient-19);
      }

      .cls-5 {
        fill: url(#linear-gradient);
      }

      .cls-42 {
        mask: url(#mask-10);
      }

      .cls-43 {
        filter: url(#luminosity-noclip-7);
      }

      .cls-6 {
        fill: url(#linear-gradient-33);
      }

      .cls-6, .cls-13, .cls-22, .cls-44, .cls-33, .cls-35, .cls-38, .cls-45 {
        opacity: .5;
      }

      .cls-6, .cls-13, .cls-22, .cls-33, .cls-38, .cls-45 {
        mix-blend-mode: screen;
      }

      .cls-7 {
        fill: url(#linear-gradient-21);
      }

      .cls-8 {
        fill: url(#linear-gradient-6);
      }

      .cls-46 {
        filter: url(#luminosity-noclip-5);
      }

      .cls-9 {
        fill: url(#linear-gradient-36);
      }

      .cls-9, .cls-19, .cls-24, .cls-26, .cls-44, .cls-35, .cls-36, .cls-37 {
        mix-blend-mode: multiply;
      }

      .cls-47 {
        mask: url(#mask-2);
      }

      .cls-48 {
        isolation: isolate;
      }

      .cls-10 {
        fill: url(#linear-gradient-15);
      }

      .cls-11 {
        fill: url(#linear-gradient-11);
      }

      .cls-49 {
        mask: url(#mask-3);
      }

      .cls-12 {
        fill: url(#linear-gradient-5);
      }

      .cls-13 {
        fill: url(#linear-gradient-31);
      }

      .cls-50 {
        mask: url(#mask-9);
      }

      .cls-14 {
        fill: #aeaeaf;
      }

      .cls-51 {
        mask: url(#mask-5);
      }

      .cls-15 {
        fill: url(#linear-gradient-13);
      }

      .cls-16 {
        fill: url(#linear-gradient-23);
      }

      .cls-17 {
        fill: url(#linear-gradient-25);
      }

      .cls-18 {
        fill: url(#linear-gradient-16);
      }

      .cls-19 {
        fill: url(#linear-gradient-30);
      }

      .cls-20 {
        fill: url(#linear-gradient-22);
      }

      .cls-21 {
        fill: #b9b8b9;
      }

      .cls-22 {
        fill: url(#linear-gradient-3);
      }

      .cls-23 {
        fill: url(#linear-gradient-20);
      }

      .cls-24 {
        fill: url(#linear-gradient-32);
      }

      .cls-25 {
        fill: url(#linear-gradient-14);
      }

      .cls-52 {
        filter: url(#luminosity-noclip-9);
      }

      .cls-53 {
        mask: url(#mask-8);
      }

      .cls-26 {
        fill: url(#linear-gradient-34);
      }

      .cls-27 {
        fill: url(#linear-gradient-7);
      }

      .cls-54 {
        mask: url(#mask-4);
      }

      .cls-28 {
        fill: url(#linear-gradient-9);
      }

      .cls-55 {
        mask: url(#mask-6);
      }

      .cls-29 {
        fill: url(#linear-gradient-8);
      }

      .cls-30 {
        fill: url(#linear-gradient-24);
      }

      .cls-31 {
        fill: url(#linear-gradient-26);
      }

      .cls-32 {
        fill: url(#linear-gradient-18);
      }

      .cls-33 {
        fill: url(#linear-gradient-28);
      }

      .cls-56 {
        filter: url(#luminosity-noclip);
      }

      .cls-57 {
        mask: url(#mask-1);
      }

      .cls-58 {
        mask: url(#mask);
      }

      .cls-34 {
        fill: url(#linear-gradient-29);
      }

      .cls-35 {
        fill: #d0d0d1;
      }

      .cls-36 {
        fill: url(#linear-gradient-2);
      }

      .cls-37 {
        fill: url(#linear-gradient-27);
      }

      .cls-59 {
        mask: url(#mask-7);
      }

      .cls-38 {
        fill: url(#linear-gradient-35);
      }

      .cls-39 {
        fill: url(#linear-gradient-10);
      }

      .cls-40 {
        fill: url(#linear-gradient-4);
      }

      .cls-60 {
        mask: url(#mask-11);
      }

      .cls-41 {
        fill: url(#linear-gradient-37);
      }

      .cls-61 {
        filter: url(#luminosity-noclip-3);
      }
    </style>
    <linearGradient id="linear-gradient" x1="1460.42" y1="11.19" x2="1465.84" y2="11.19" gradientTransform="translate(1468.78) rotate(-180) scale(1 -1)" gradientUnits="userSpaceOnUse">
      <stop offset="0" stop-color="#e2e2e2"/>
      <stop offset=".06" stop-color="#d7d7d7"/>
      <stop offset=".19" stop-color="#c8c8c8"/>
      <stop offset=".29" stop-color="#c3c3c3"/>
      <stop offset=".64" stop-color="#b9b8b9"/>
    </linearGradient>
    <filter id="luminosity-noclip" x="6.76" y="10.42" width="1.31" height="1.54" color-interpolation-filters="sRGB" filterUnits="userSpaceOnUse">
      <feFlood flood-color="#fff" result="bg"/>
      <feBlend in="SourceGraphic" in2="bg"/>
    </filter>
    <filter id="luminosity-noclip-2" x="6.76" y="-8186.92" width="1.31" height="32766" color-interpolation-filters="sRGB" filterUnits="userSpaceOnUse">
      <feFlood flood-color="#fff" result="bg"/>
      <feBlend in="SourceGraphic" in2="bg"/>
    </filter>
    <mask id="mask-1" x="6.76" y="-8186.92" width="1.31" height="32766" maskUnits="userSpaceOnUse"/>
    <linearGradient id="linear-gradient-2" x1="1461.37" y1="10.55" x2="1461.37" y2="12.17" gradientTransform="translate(1468.78) rotate(-180) scale(1 -1)" gradientUnits="userSpaceOnUse">
      <stop offset=".1" stop-color="#fff"/>
      <stop offset=".44" stop-color="#999"/>
      <stop offset=".93" stop-color="#000"/>
    </linearGradient>
    <mask id="mask" x="6.76" y="10.42" width="1.31" height="1.54" maskUnits="userSpaceOnUse">
      <g class="cls-56">
        <g class="cls-57">
          <path class="cls-36" d="m7.28,11.95s-.51,0-.51,0c-.02,0,0-.29,0-.31,0-.13.02-.27.09-.38.07-.12.19-.19.26-.3.08-.13.08-.3.04-.45,0-.02-.02-.09-.06-.09h.97c0,.11.02.17,0,.29-.05.25-.19.36-.41.47-.17.08-.27.25-.33.42-.01.03-.11.35-.03.34Z"/>
        </g>
      </g>
    </mask>
    <linearGradient id="linear-gradient-3" x1="1461.37" y1="10.55" x2="1461.37" y2="12.17" gradientTransform="translate(1468.78) rotate(-180) scale(1 -1)" gradientUnits="userSpaceOnUse">
      <stop offset=".1" stop-color="#fff"/>
      <stop offset=".93" stop-color="#fff"/>
    </linearGradient>
    <linearGradient id="linear-gradient-4" x1="1459.63" y1="12.09" x2="1463.91" y2="12.09" gradientTransform="translate(1468.78) rotate(-180) scale(1 -1)" gradientUnits="userSpaceOnUse">
      <stop offset="0" stop-color="#e2e2e2"/>
      <stop offset=".09" stop-color="#d7d7d7"/>
      <stop offset=".27" stop-color="#c8c8c8"/>
      <stop offset=".42" stop-color="#c3c3c3"/>
      <stop offset=".85" stop-color="#b9b8b9"/>
    </linearGradient>
    <linearGradient id="linear-gradient-5" x1="1459.57" y1="12.86" x2="1466.86" y2="12.86" xlink:href="#linear-gradient-4"/>
    <linearGradient id="linear-gradient-6" x1="1460.53" y1=".97" x2="1461.28" y2="1.89" gradientTransform="translate(1468.78) rotate(-180) scale(1 -1)" gradientUnits="userSpaceOnUse">
      <stop offset=".09" stop-color="#e2e2e2"/>
      <stop offset=".18" stop-color="#ddd"/>
      <stop offset=".99" stop-color="#b9b8b9"/>
    </linearGradient>
    <linearGradient id="linear-gradient-7" x1="1461.13" y1=".71" x2="1461.6" y2="1.69" xlink:href="#linear-gradient-6"/>
    <linearGradient id="linear-gradient-8" x1="1461.67" y1=".45" x2="1462.14" y2="1.43" xlink:href="#linear-gradient-6"/>
    <linearGradient id="linear-gradient-9" x1="1462.21" y1=".19" x2="1462.68" y2="1.18" xlink:href="#linear-gradient-6"/>
    <linearGradient id="linear-gradient-10" x1="1463.21" y1=".1" x2="1463.06" y2="1.28" xlink:href="#linear-gradient-6"/>
    <linearGradient id="linear-gradient-11" x1="1464.84" y1=".37" x2="1464.45" y2="1.59" gradientTransform="translate(1468.78) rotate(-180) scale(1 -1)" gradientUnits="userSpaceOnUse">
      <stop offset=".09" stop-color="#e2e2e2"/>
      <stop offset=".52" stop-color="#c3c3c3"/>
      <stop offset=".85" stop-color="#b9b8b9"/>
    </linearGradient>
    <linearGradient id="linear-gradient-12" x1="1465.65" y1=".78" x2="1464.95" y2="1.79" xlink:href="#linear-gradient-11"/>
    <linearGradient id="linear-gradient-13" x1="1466.39" y1="1.29" x2="1465.69" y2="2.31" xlink:href="#linear-gradient-11"/>
    <linearGradient id="linear-gradient-14" x1="1467.13" y1="2.07" x2="1466.01" y2="2.81" xlink:href="#linear-gradient-11"/>
    <linearGradient id="linear-gradient-15" x1="1467.61" y1="2.8" x2="1466.49" y2="3.54" xlink:href="#linear-gradient-11"/>
    <linearGradient id="linear-gradient-16" x1="1468.46" y1="4.09" x2="1467.34" y2="4.83" xlink:href="#linear-gradient-11"/>
    <linearGradient id="linear-gradient-17" x1="1468.61" y1="5.27" x2="1467.24" y2="5.58" xlink:href="#linear-gradient-11"/>
    <linearGradient id="linear-gradient-18" x1="1468.45" y1="6.32" x2="1466.98" y2="5.93" xlink:href="#linear-gradient-11"/>
    <linearGradient id="linear-gradient-19" x1="1467.24" y1="7" x2="1466.31" y2="6.38" xlink:href="#linear-gradient-11"/>
    <linearGradient id="linear-gradient-20" x1="1466.3" y1="7.64" x2="1465.53" y2="6.83" xlink:href="#linear-gradient-11"/>
    <linearGradient id="linear-gradient-21" x1="1466.1" y1="8.29" x2="1464.6" y2="7.93" xlink:href="#linear-gradient-11"/>
    <linearGradient id="linear-gradient-22" x1="1466.21" y1="8.39" x2="1464.88" y2="9.15" xlink:href="#linear-gradient-11"/>
    <linearGradient id="linear-gradient-23" x1="1466.74" y1="9.31" x2="1465.41" y2="10.07" xlink:href="#linear-gradient-11"/>
    <linearGradient id="linear-gradient-24" x1="1468.03" y1="3.43" x2="1466.9" y2="4.17" xlink:href="#linear-gradient-11"/>
    <linearGradient id="linear-gradient-25" x1="1464.06" y1=".21" x2="1463.92" y2="1.39" xlink:href="#linear-gradient-6"/>
    <linearGradient id="linear-gradient-26" x1="1461.75" y1="2.86" x2="1465.27" y2="9.56" xlink:href="#linear-gradient-11"/>
    <filter id="luminosity-noclip-3" x="4.04" y="4.57" width="3.71" height="5.1" color-interpolation-filters="sRGB" filterUnits="userSpaceOnUse">
      <feFlood flood-color="#fff" result="bg"/>
      <feBlend in="SourceGraphic" in2="bg"/>
    </filter>
    <filter id="luminosity-noclip-4" x="4.04" y="-8186.92" width="3.71" height="32766" color-interpolation-filters="sRGB" filterUnits="userSpaceOnUse">
      <feFlood flood-color="#fff" result="bg"/>
      <feBlend in="SourceGraphic" in2="bg"/>
    </filter>
    <mask id="mask-3" x="4.04" y="-8186.92" width="3.71" height="32766" maskUnits="userSpaceOnUse"/>
    <linearGradient id="linear-gradient-27" x1="1462.89" y1="4.55" x2="1462.89" y2="9.77" xlink:href="#linear-gradient-2"/>
    <mask id="mask-2" x="4.04" y="4.57" width="3.71" height="5.1" maskUnits="userSpaceOnUse">
      <g class="cls-61">
        <g class="cls-49">
          <path class="cls-37" d="m6.18,7.31c-.23-.24-.46-.46-.67-.68-.58-.62-1.14-1.27-1.48-2.06.18.43.81.89,1.15,1.21.23.22.47.42.71.62.23.19.45.39.68.58.21.18.42.36.61.55.19.2.38.41.49.66.13.29.09.63-.08.89-.13.2-.32.36-.44.57.04-.37.01-.77-.11-1.12-.16-.46-.5-.87-.86-1.24Z"/>
        </g>
      </g>
    </mask>
    <linearGradient id="linear-gradient-28" x1="1462.89" y1="4.55" x2="1462.89" y2="9.77" xlink:href="#linear-gradient-3"/>
    <linearGradient id="linear-gradient-29" x1="1459.41" y1="10.35" x2="1465.14" y2="10.35" gradientTransform="translate(1468.78) rotate(-180) scale(1 -1)" gradientUnits="userSpaceOnUse">
      <stop offset="0" stop-color="#e2e2e2"/>
      <stop offset=".06" stop-color="#dcdcdc"/>
      <stop offset=".36" stop-color="#c2c2c3"/>
      <stop offset=".63" stop-color="#b3b3b4"/>
      <stop offset=".85" stop-color="#aeaeaf"/>
    </linearGradient>
    <filter id="luminosity-noclip-5" x="5" y="2.15" width="1.58" height="2.18" color-interpolation-filters="sRGB" filterUnits="userSpaceOnUse">
      <feFlood flood-color="#fff" result="bg"/>
      <feBlend in="SourceGraphic" in2="bg"/>
    </filter>
    <filter id="luminosity-noclip-6" x="5" y="-8186.92" width="1.58" height="32766" color-interpolation-filters="sRGB" filterUnits="userSpaceOnUse">
      <feFlood flood-color="#fff" result="bg"/>
      <feBlend in="SourceGraphic" in2="bg"/>
    </filter>
    <mask id="mask-5" x="5" y="-8186.92" width="1.58" height="32766" maskUnits="userSpaceOnUse"/>
    <linearGradient id="linear-gradient-30" x1="1462.99" y1="2.04" x2="1462.99" y2="4.73" xlink:href="#linear-gradient-2"/>
    <mask id="mask-4" x="5" y="2.15" width="1.58" height="2.18" maskUnits="userSpaceOnUse">
      <g class="cls-46">
        <g class="cls-51">
          <path class="cls-19" d="m6.12,3.25c-.16.12-.01.34.07.46.08.11.16.2.24.31.04.05.15.16.15.24,0,.04-.21,0-.24,0-.09-.01-.18,0-.27.01-.26.04-.55.14-.81,0-.55-.28-.1-.99.13-1.33.16-.24.33-.5.43-.78,0,.03.01.06.02.08.01.15.05.3.11.43.07.17.17.32.31.43.05.04.1.07.15.1-.1,0-.22,0-.3.06Z"/>
        </g>
      </g>
    </mask>
    <linearGradient id="linear-gradient-31" x1="1462.99" y1="2.04" x2="1462.99" y2="4.73" xlink:href="#linear-gradient-3"/>
    <filter id="luminosity-noclip-7" x="2.64" y="2.05" width="2.43" height="3.05" color-interpolation-filters="sRGB" filterUnits="userSpaceOnUse">
      <feFlood flood-color="#fff" result="bg"/>
      <feBlend in="SourceGraphic" in2="bg"/>
    </filter>
    <filter id="luminosity-noclip-8" x="2.64" y="-8186.92" width="2.43" height="32766" color-interpolation-filters="sRGB" filterUnits="userSpaceOnUse">
      <feFlood flood-color="#fff" result="bg"/>
      <feBlend in="SourceGraphic" in2="bg"/>
    </filter>
    <mask id="mask-7" x="2.64" y="-8186.92" width="2.43" height="32766" maskUnits="userSpaceOnUse"/>
    <linearGradient id="linear-gradient-32" x1="1464.14" y1="2.12" x2="1466.37" y2="4.88" gradientTransform="translate(1468.78) rotate(-180) scale(1 -1)" gradientUnits="userSpaceOnUse">
      <stop offset=".1" stop-color="#fff"/>
      <stop offset=".11" stop-color="#f9f9f9"/>
      <stop offset=".25" stop-color="#b8b8b8"/>
      <stop offset=".38" stop-color="gray"/>
      <stop offset=".51" stop-color="#525252"/>
      <stop offset=".63" stop-color="#2e2e2e"/>
      <stop offset=".74" stop-color="#141414"/>
      <stop offset=".84" stop-color="#050505"/>
      <stop offset=".93" stop-color="#000"/>
    </linearGradient>
    <mask id="mask-6" x="2.64" y="2.05" width="2.43" height="3.05" maskUnits="userSpaceOnUse">
      <g class="cls-43">
        <g class="cls-59">
          <path class="cls-24" d="m2.64,5.1c.1-.81.74-1.9.95-2.17.27-.35.65-.71,1.1-.81.12-.03.26-.06.38-.06-1.77.96-2.39,2.78-2.43,3.05Z"/>
        </g>
      </g>
    </mask>
    <linearGradient id="linear-gradient-33" x1="1464.14" y1="2.12" x2="1466.37" y2="4.88" gradientTransform="translate(1468.78) rotate(-180) scale(1 -1)" gradientUnits="userSpaceOnUse">
      <stop offset=".1" stop-color="#fff"/>
      <stop offset=".93" stop-color="#fff"/>
    </linearGradient>
    <filter id="luminosity-noclip-9" x="5.1" y=".02" width="5.06" height="6.25" color-interpolation-filters="sRGB" filterUnits="userSpaceOnUse">
      <feFlood flood-color="#fff" result="bg"/>
      <feBlend in="SourceGraphic" in2="bg"/>
    </filter>
    <filter id="luminosity-noclip-10" x="5.1" y="-8186.92" width="5.06" height="32766" color-interpolation-filters="sRGB" filterUnits="userSpaceOnUse">
      <feFlood flood-color="#fff" result="bg"/>
      <feBlend in="SourceGraphic" in2="bg"/>
    </filter>
    <mask id="mask-9" x="5.1" y="-8186.92" width="5.06" height="32766" maskUnits="userSpaceOnUse"/>
    <linearGradient id="linear-gradient-34" x1="1460.82" y1="2.65" x2="1462.4" y2="4.23" xlink:href="#linear-gradient-2"/>
    <mask id="mask-8" x="5.1" y=".02" width="5.06" height="6.25" maskUnits="userSpaceOnUse">
      <g class="cls-52">
        <g class="cls-50">
          <path class="cls-26" d="m5.33.16s0,0,.01,0c0,0,0,0,0,0,.04.04.09.07.13.1.27.21.7.58.84.75.16.19.12.23.05.32,0,0,.45.09,1.24.62.21.14.36.26.39.3,0,0,0,0,0,0,0,0,0,0,0,0,0,0,0,0,0,0,0,0,0,0,0,0,0,0,0,0,0,0,0,0,0,0,0,0,0,0,0,0,0,0,0,0,0,0,0,0,0,0,0,0,0,0,0,0,0,0,0,0,0,0,0,0,0,0,0,0,0,0,0,0,0,0-.01,0-.02.01,0,0,0,0,0,0,0,0-.01,0-.02.01,0,0,0,0,0,0,0,0,0,0-.01.01h0s-.01,0-.02.01c0,0,0,0,0,0,0,0-.01,0-.02.01h0c-.14.08-.34.15-.34.15,1.25.86,2.16,2.38,2.21,2.47,0,0,0,0,0,0,.45.07.48.24.38.67-.06.24-.17.45-.26.59.04-.15.06-.3.06-.46,0-.14-.04-.36-.2-.41-.11-.03-.21,0-.32.02-.14.04-.29.05-.43.05-.96-.06-1.07-1.18-1.29-1.9-.11-.36-.26-.73-.58-.95-.21-.15-.46-.25-.72-.25-.22,0-.55,0-.52-.3.04-.33.34-.67.06-.96-.16-.17-.4-.28-.54-.48-.13-.19-.2-.4-.27-.61.07.04.15.09.22.14Z"/>
        </g>
      </g>
    </mask>
    <linearGradient id="linear-gradient-35" x1="1460.82" y1="2.65" x2="1462.4" y2="4.23" xlink:href="#linear-gradient-3"/>
    <filter id="luminosity-noclip-11" x="6.97" y="12.26" width="1.67" height="1.21" color-interpolation-filters="sRGB" filterUnits="userSpaceOnUse">
      <feFlood flood-color="#fff" result="bg"/>
      <feBlend in="SourceGraphic" in2="bg"/>
    </filter>
    <filter id="luminosity-noclip-12" x="6.97" y="-8186.92" width="1.67" height="32766" color-interpolation-filters="sRGB" filterUnits="userSpaceOnUse">
      <feFlood flood-color="#fff" result="bg"/>
      <feBlend in="SourceGraphic" in2="bg"/>
    </filter>
    <mask id="mask-11" x="6.97" y="-8186.92" width="1.67" height="32766" maskUnits="userSpaceOnUse"/>
    <linearGradient id="linear-gradient-36" x1="1460.96" y1="13.57" x2="1461.02" y2="11.41" gradientTransform="translate(1468.78) rotate(-180) scale(1 -1)" gradientUnits="userSpaceOnUse">
      <stop offset=".08" stop-color="#fff"/>
      <stop offset=".15" stop-color="#dbdbdb"/>
      <stop offset=".27" stop-color="#999"/>
      <stop offset=".39" stop-color="#626262"/>
      <stop offset=".5" stop-color="#383838"/>
      <stop offset=".6" stop-color="#191919"/>
      <stop offset=".68" stop-color="#060606"/>
      <stop offset=".74" stop-color="#000"/>
    </linearGradient>
    <mask id="mask-10" x="6.97" y="12.26" width="1.67" height="1.21" maskUnits="userSpaceOnUse">
      <g class="cls-1">
        <g class="cls-60">
          <path class="cls-9" d="m7.76,12.26c.35.08.81.6.88,1.21h-1.32c0-.38-.06-.93-.35-1.21h.79Z"/>
        </g>
      </g>
    </mask>
    <linearGradient id="linear-gradient-37" x1="1460.96" y1="13.57" x2="1461.02" y2="11.41" gradientTransform="translate(1468.78) rotate(-180) scale(1 -1)" gradientUnits="userSpaceOnUse">
      <stop offset=".08" stop-color="#fff"/>
      <stop offset=".74" stop-color="#fff"/>
    </linearGradient>
  </defs>
  <g class="cls-48">
    <g id="Capa_2" data-name="Capa 2">
      <g id="Layer_1" data-name="Layer 1">
        <g>
          <g>
            <g>
              <path class="cls-5" d="m5.57,10.39l2.69-.05v.44c0,.1-.12.31-.36.44-.25.13-.27.37-.15.51.12.14.17.15.17.31H3.21c0-.16.05-.18.17-.31.12-.14.1-.38-.15-.51-.25-.13-.36-.34-.36-.44v-.44l2.69.05Z"/>
              <g class="cls-58">
                <path class="cls-22" d="m7.28,11.95s-.51,0-.51,0c-.02,0,0-.29,0-.31,0-.13.02-.27.09-.38.07-.12.19-.19.26-.3.08-.13.08-.3.04-.45,0-.02-.02-.09-.06-.09h.97c0,.11.02.17,0,.29-.05.25-.19.36-.41.47-.17.08-.27.25-.33.42-.01.03-.11.35-.03.34Z"/>
              </g>
              <path class="cls-35" d="m4.37,10.37c.2.44.26.71.76.83.27.06,1.51.06,1.92.04.41-.02.94.08,1.18-.33-.05.1-.16.23-.33.31-.25.13-.27.37-.15.51.12.14.17.15.17.31H3.21c0-.16.05-.18.17-.31.12-.14.1-.38-.15-.51-.25-.13-.36-.34-.36-.44v-.44l1.5.03Z"/>
              <g>
                <path class="cls-40" d="m2.83,12.18c0-.16.13-.29.28-.29h4.9c.16,0,.28.13.28.29,0,.03,0,.09,0,.11H2.84s0-.09,0-.11Z"/>
                <g class="cls-44">
                  <path class="cls-21" d="m2.84,12.14h5.46s0,.03,0,.04c0,.03,0,.09,0,.11H2.84s0-.09,0-.11c0-.02,0-.03,0-.04Z"/>
                </g>
                <path class="cls-12" d="m1.92,13.46c0-.67.42-1.21.93-1.21h5.42c.51,0,.93.54.93,1.21h0s-7.28,0-7.28,0h0Z"/>
                <path class="cls-35" d="m2.85,12.26h1.21c.4.48,1.31.77,1.74.9.47.15.97.26,1.47.31H1.92c0-.67.42-1.21.93-1.21Z"/>
              </g>
              <path class="cls-14" d="m7.51,2.06s.54-.6.75-.81c.21-.21-.09-.35-.54-.54-.39-.16-.8-.29-1.21-.39-.65-.15-1.37-.23-2.03-.12-.63.11-1.18.42-1.68.81-.88.69-1.58,1.52-2.06,2.54-.23.49-.44,1.04-.55,1.57-.18.88-.29,1.01.03,1.18.42.23.86.42,1.28.67.4.24.85.48,1.17.82.34.36-.22.96-.43,1.24-.1.14-.14.23-.03.37.08.11.19.2.28.3.11.11.43.35.43.53,0,.16.48-.32.48-.29s.97-1.2.97-1.2c0,0-.13-.78-.84-1.56-.71-.78-1.98-1.35-2.04-1.54-.06-.2.12-2.09,1.59-3.19,1.47-1.1,1.99-.61,2.14-1.11.14-.5,1.99.59,2.31.72Z"/>
              <g>
                <path class="cls-8" d="m7.73,1.33c.1-.11.18-.25.28-.35.05-.05.1-.06.16-.05.16.1.21.2.09.32-.21.21-.75.81-.75.81-.05-.02-.13-.06-.23-.12.07-.11.38-.52.46-.61Z"/>
                <path class="cls-27" d="m7.18,1.27c.07-.15.14-.29.2-.45.04-.1.06-.19.17-.17.06.02.11.04.17.07,0,0,0,0,0,0,.02.01.03.03.05.04.03.09-.02.19-.05.29-.05.12-.1.24-.16.36-.03.07-.07.13-.11.2-.08.1-.15.2-.21.31-.09-.05-.19-.1-.31-.16.12-.14.18-.33.25-.49Z"/>
                <path class="cls-29" d="m6.69.75c.03-.11.06-.37.23-.31.06.02.12.05.18.06.04.02.07.05.08.09.02.07,0,.13,0,.2-.03.14-.07.28-.13.42-.07.17-.14.33-.23.49-.11-.06-.23-.11-.35-.17.07-.26.15-.52.22-.78Z"/>
                <path class="cls-28" d="m6.09.83c0-.15,0-.33.04-.48.02-.06.04-.08.08-.09.07.01.14.03.2.04.07.05.13.11.13.21,0,.14-.04.27-.08.4-.05.19-.09.37-.14.56-.08-.04-.16-.07-.24-.1,0-.18,0-.36.01-.54Z"/>
                <path class="cls-39" d="m5.43,1.2c-.01-.12-.03-.24-.04-.36-.01-.15-.04-.29-.04-.44,0-.07,0-.19.08-.24.13,0,.26.02.38.04.06.05.07.13.07.21,0,.15-.01.3-.02.45-.01.14-.02.27-.05.41-.15-.05-.28-.07-.39-.07Z"/>
                <path class="cls-11" d="m3.87,1.03c-.08-.18-.23-.46-.04-.62.02-.02.04-.03.06-.04.05-.02.11-.04.17-.06.02,0,.05,0,.07,0,.11.02.15.13.18.23.05.18.08.36.12.54.04.2.07.41.1.61-.1.02-.21.06-.33.1-.11-.25-.21-.51-.33-.76Z"/>
                <path class="cls-2" d="m3.16,1.37c-.08-.11-.28-.31-.19-.46.01-.02.03-.04.04-.06.09-.06.19-.13.28-.18,0,0,.02,0,.02,0,.14-.04.2.05.25.16.08.17.16.34.24.51.08.17.16.35.25.52-.13.06-.28.13-.44.22-.15-.24-.3-.47-.45-.71Z"/>
                <path class="cls-15" d="m2.96,2.53c-.11-.12-.21-.25-.32-.37-.11-.13-.23-.25-.34-.37-.07-.07-.13-.17-.07-.27.01-.02.02-.03.04-.05.1-.09.2-.18.3-.27,0,0,0,0,0,0,.1-.02.18.03.24.1.1.11.18.24.27.36.1.14.2.29.29.43.02.03.04.06.06.1-.12.07-.24.16-.37.26-.04.03-.07.06-.11.08Z"/>
                <path class="cls-25" d="m2.4,3.09c-.15-.13-.32-.24-.47-.37-.11-.1-.28-.22-.35-.36-.02-.05-.02-.1,0-.15.1-.13.21-.25.32-.37,0,0,0,0,0,0,.12-.07.21,0,.28.1.13.15.27.29.4.44.08.09.16.18.24.28-.16.14-.3.29-.42.44Z"/>
                <path class="cls-10" d="m1.52,3.33c-.09-.08-.2-.15-.28-.24-.04-.05-.1-.11-.11-.17,0-.06.02-.12.05-.17.03-.04.07-.09.12-.1.08-.02.16,0,.23.04.12.06.23.15.33.23.13.11.26.23.38.36-.09.13-.17.26-.24.38-.17-.1-.33-.22-.48-.35Z"/>
                <path class="cls-18" d="m1.39,5.01c-.14-.03-.28-.07-.42-.12-.11-.04-.22-.08-.32-.14-.07-.04-.22-.09-.23-.19-.02-.12.03-.23.05-.34.01-.05.02-.14.08-.17,0,0,.01,0,.02,0,.15-.02.32.07.44.13.15.07.29.13.44.21.07.04.13.08.2.12-.06.19-.1.36-.13.52-.05-.01-.1-.01-.12-.02Z"/>
                <path class="cls-3" d="m1.6,5.76c-.13.01-.26.04-.4.02-.16-.02-.31-.03-.47-.04-.14,0-.27-.01-.41-.03-.06,0-.13-.02-.18-.05-.04-.03-.06-.06-.07-.1.03-.12.06-.27.1-.45.01-.06.03-.12.04-.17.01,0,.02,0,.04-.01.16-.04.32.02.47.07.26.08.5.19.75.27-.02.19-.02.32,0,.37.01.03.06.08.13.13Z"/>
                <path class="cls-32" d="m.53,5.94c.22,0,.44,0,.66-.02.17-.01.35,0,.5-.08,0,0,0,0,0,0,.1.07.23.15.37.24-.28.13-.56.24-.84.36-.18.08-.34.14-.54.09-.03,0-.06-.02-.09-.02-.13-.07-.26-.13-.39-.2-.03-.02-.05-.03-.07-.04,0-.03,0-.05,0-.08,0-.22.23-.22.4-.23Z"/>
                <path class="cls-4" d="m1.32,6.68c.08-.11.23-.18.34-.23.21-.09.43-.17.65-.22.16.1.32.21.48.33-.01.01-.03.02-.04.04-.11.09-.21.17-.31.27-.12.11-.25.25-.41.29-.09.02-.19.01-.28-.02-.09-.05-.18-.11-.27-.16-.05-.03-.11-.06-.16-.09-.03-.07-.04-.14,0-.2Z"/>
                <path class="cls-23" d="m3.39,7.35c-.08.08-.17.17-.26.25-.09.08-.2.19-.32.23-.04.01-.08.02-.11.02-.01-.02-.03-.04-.05-.06-.14-.15-.31-.29-.49-.41,0-.02.01-.04.03-.07.05-.1.13-.17.22-.24.18-.14.38-.26.57-.4.2.15.39.32.55.49,0,0,.02.02.03.03-.05.05-.11.1-.16.15Z"/>
                <path class="cls-7" d="m4.18,8.43c-.08,0-.16.02-.24.01-.17,0-.34-.01-.51-.01-.16,0-.32,0-.48,0-.1,0-.2-.01-.26-.09.03-.07.05-.13.06-.2.05-.06.11-.11.18-.15.12-.07.24-.14.36-.21.13-.08.27-.16.41-.24.02-.01.05-.02.08-.03.27.37.41.71.49.94-.03,0-.06,0-.09,0Z"/>
                <path class="cls-20" d="m3.46,9.57c-.16-.06-.32-.15-.46-.24-.13-.07-.26-.14-.39-.22-.12-.08-.22-.17-.21-.31.04-.05.08-.11.12-.17.08-.04.17-.05.26-.04.2.02.39.03.59.03.33.01.65.07.98.1,0,0,0,.01,0,.01,0,0-.42.54-.71.9-.06-.02-.13-.04-.19-.06Z"/>
                <path class="cls-16" d="m2.45,9.12c.13.07.27.14.4.22.23.14.46.29.7.42-.09.11-.15.19-.15.18,0-.03-.48.45-.48.29,0-.17-.33-.41-.43-.53-.1-.1-.2-.19-.28-.3-.09-.12-.08-.2-.02-.3.09-.07.19-.03.28.02Z"/>
                <path class="cls-30" d="m1.5,4.22c-.14-.07-.27-.15-.41-.21-.12-.05-.33-.11-.39-.24-.02-.05-.02-.1,0-.16.01-.02.02-.05.03-.07.03-.06.06-.11.08-.17.02-.03.05-.07.07-.09.02-.01.04-.03.06-.04.09-.05.19,0,.28.05.15.1.3.21.44.32.09.07.18.15.26.22-.08.16-.15.33-.21.49-.07-.03-.14-.07-.21-.1Z"/>
                <path class="cls-17" d="m4.6.19c.06,0,.13-.02.19-.02.04,0,.07,0,.11,0,.02,0,.04.02.05.03.07.07.06.22.06.32,0,.2,0,.4,0,.59,0,.15,0,.31-.02.46-.07.03-.16.05-.27.07,0-.04-.02-.08-.03-.11-.06-.25-.1-.5-.14-.75-.01-.09-.09-.38-.03-.53.02-.03.05-.05.09-.06Z"/>
              </g>
              <path class="cls-31" d="m7.93,10.23s-.2-.56.54-1.29c0,0-.05-.69-1.1-1.73-1.05-1.04-1.87-1.91-1.87-1.91,0,0,1.09-.25,1.81.2,0,0,.15,1.04.2,1.08.05.04,1.47.35,1.62.36.15.01.15-.19.09-.36,0,0,.68.28.49-.12,0,0,.29-.34.4-.77.11-.43.07-.6-.38-.67,0,0-.92-1.59-2.21-2.47,0,0,.54-.19.47-.29-.07-.09-.86-.68-1.62-.92,0,0,.13-.11.01-.25-.12-.14-.73-.76-1.3-1.08,0,0-.33,1.02-.33,1.37,0,0-3.07.5-3.53,4.44,0,0,2.39.95,2.83,2.74,0,0-.88.87-1.15,1.58v.15l5.03-.05Z"/>
              <g class="cls-47">
                <path class="cls-33" d="m6.18,7.31c-.23-.24-.46-.46-.67-.68-.58-.62-1.14-1.27-1.48-2.06.18.43.81.89,1.15,1.21.23.22.47.42.71.62.23.19.45.39.68.58.21.18.42.36.61.55.19.2.38.41.49.66.13.29.09.63-.08.89-.13.2-.32.36-.44.57.04-.37.01-.77-.11-1.12-.16-.46-.5-.87-.86-1.24Z"/>
              </g>
              <path class="cls-35" d="m6.75,10.24c.2-.05.4-.12.56-.23.17-.12.22-.35.33-.51.08-.12.17-.22.27-.32.08-.07.17-.14.24-.22.12-.15.02-.38-.06-.52-.12-.23-.3-.43-.45-.64-.15-.22-.3-.43-.49-.63-.08-.08-.15-.17-.24-.24-.16-.17-.33-.33-.5-.49-.43-.38-.88-.73-1.31-1.1-.22-.18-.43-.37-.64-.57-.11-.1-.21-.21-.31-.32-.09-.1-.24-.23-.26-.36-.03-.14.1-.24.19-.33.1-.1.2-.2.3-.29.11-.1.23-.21.36-.29.06-.04.11-.07.17-.11,0,0,0,0-.01.01-.15.19-.32.46-.36.7-.05.27.1.47.32.6.23.14.46.18.73.17.31-.02.63-.09.93-.06.09,0,.37.04.32-.13-.02-.1-.09-.19-.15-.26-.08-.11-.16-.22-.24-.33-.09-.12-.19-.23-.29-.33.25.14.5.27.74.43.16.1.34.21.46.36.11.13.18.29.23.46.1.36.16.72.24,1.08.03.13.04.32.14.42.08.08.17.11.28.1.02,0,.02-.01.02-.03-.02-.11-.12-.17-.16-.27-.06-.15.14-.24.25-.3.17-.08.25.1.37.18.11.07.23.14.37.15,0,0,.02,0,.02-.02.01-.08.03-.17.1-.23.07-.06.16-.09.24-.13.13-.06.25-.13.26-.29.02-.34-.23-.68-.44-.93-.3-.35-.63-.69-.98-.99-.16-.14-.33-.29-.51-.41-.16-.1-.32-.18-.47-.3-.03-.03-.07-.07-.09-.11.08-.04.18-.06.28-.05.03,0,.06,0,.08,0,1.26.89,2.15,2.43,2.15,2.43.45.07.48.24.38.67-.11.43-.4.77-.4.77.19.4-.49.12-.49.12.06.17.05.37-.09.36-.15-.01-1.57-.32-1.62-.36-.05-.04-.2-1.08-.2-1.08-.72-.44-1.81-.2-1.81-.2,0,0,.82.88,1.87,1.91,1.05,1.04,1.1,1.73,1.1,1.73-.74.73-.54,1.29-.54,1.29h-1.17Z"/>
              <path class="cls-35" d="m4.05,8.55c-.44-1.8-2.83-2.74-2.83-2.74C1.67,1.87,4.75,1.37,4.75,1.37c0-.34.33-1.37.33-1.37.57.32,1.18.94,1.3,1.08.12.14-.01.25-.01.25.76.24,1.55.82,1.62.92.04.05-.12.14-.27.21.13-.22-.44-.55-.61-.62-.36-.14-.75-.12-1.08.04,0,0,0-.02.01-.02.07-.15.11-.32.13-.48.03-.27-.11-.52-.29-.71-.21-.22-.43-.44-.7-.57,0,0-.03,0-.03,0-.08.2-.08.43-.08.64,0,.21.02.4.1.6.09.23.24.47.43.64.01.02.02.04.03.07-.02,0-.03,0-.05,0-.03-.01-.07-.02-.1-.03-.04-.01-.08-.03-.12-.03-.03,0-.06,0-.1,0-.07,0-.14,0-.21,0-.2.03-.41.08-.6.17-.4.17-.73.44-.99.79-.33.44-.57.93-.74,1.45-.07.22-.14.43-.21.64-.04.11-.1.26-.07.38,0,0-.01.02,0,.03.04.09.15.11.23.16.14.08.29.17.42.27.28.19.55.39.8.61.24.21.46.45.66.7.2.25.39.51.57.78.03.05.27.43.21.46-.1.05-.17.14-.23.23-.18.24-.37.45-.48.73-.1.24-.17.49-.19.74,0,.05,0,.1,0,.15h-1.51s0-.13,0-.13c.27-.71,1.15-1.58,1.15-1.58Z"/>
              <g>
                <path class="cls-14" d="m7.39,3.36s-.04-.25-.06-.31c-.05-.15-.11-.21-.11-.21h.05s-.23-.16-.49-.19c-.29-.03-.5.05-.5.05h.03s-.06.03-.14,0c0,0,.09.09.2.16.1.06.16.18.24.26.07.08.17.08.28.08.08,0,.15-.01.23-.02.05,0,.11,0,.16.02.05.02.11.16.11.16Z"/>
                <path class="cls-14" d="m9.74,5.57s-.15.13-.19.34c-.05.21-.11.29-.15.22-.03-.07-.18-.29-.11-.34.07-.05.45-.23.45-.23Z"/>
                <path class="cls-14" d="m9.22,6.57s0-.02-.03-.05c-.02-.03-.04-.07-.08-.12-.04-.05-.08-.1-.14-.15-.03-.03-.06-.05-.09-.07-.03-.02-.07-.04-.11-.06-.04-.02-.08-.03-.11-.04-.04-.01-.07-.03-.11-.04-.07-.03-.13-.06-.18-.09-.02-.02-.04-.03-.06-.05-.01-.02-.03-.04-.03-.05,0-.02,0-.03,0-.04,0,0,0-.01,0-.01,0,0,0,0,0,.01,0,0,0,.02,0,.04,0,.02.01.04.02.06.01.02.03.04.06.06.02.02.05.04.08.06.03.02.06.03.1.05.03.02.07.03.11.04.04.01.07.03.11.04.04.02.07.03.1.05.03.02.06.05.09.07.06.05.11.09.14.14.04.04.07.08.09.11.02.03.03.04.03.04Z"/>
                <path class="cls-14" d="m8.39,5.69s-.13.02-.18.06c-.03.02-.06.11-.06.11,0,0,.05-.03.07-.03,0,0-.02.1.05.16,0,0,0-.13.09-.16.09-.04.1-.14.1-.14,0,0-.04.04-.09.04l.02-.03Z"/>
                <path class="cls-14" d="m5.33.77s.36.76.43.99c.07.23.05-.26.19-.37.14-.11-.22-.18-.46-.49-.23-.29-.18-.18-.16-.13Z"/>
                <g>
                  <path class="cls-14" d="m6.37,1.33s0,0-.02.03c-.01.02-.02.04-.04.07-.03.06-.08.14-.13.21-.02.04-.05.08-.07.11-.02.04-.04.07-.06.1,0,.01-.02.03-.03.04,0,.01-.02.02-.02.03-.01.02-.02.03-.02.03,0,0,0,0,.02-.02,0,0,.02-.01.03-.02.01,0,.02-.02.03-.03.01-.01.02-.03.04-.04.01-.02.03-.03.04-.05.02-.04.05-.07.07-.11.02-.04.05-.08.06-.12.02-.04.04-.07.05-.11.01-.03.02-.06.03-.08,0-.02,0-.03,0-.03Z"/>
                  <path class="cls-14" d="m5.56,2.02s-.06-.03-.15-.08c-.04-.02-.1-.05-.15-.08-.06-.03-.11-.07-.17-.1-.03-.02-.06-.04-.08-.06-.03-.02-.05-.04-.08-.06-.02-.02-.05-.04-.07-.06-.02-.02-.04-.04-.05-.06-.02-.02-.03-.04-.04-.06,0-.02-.02-.03-.02-.05,0-.01,0-.03,0-.03,0,0,0-.01,0-.01,0,0,0,0,0,.01,0,0,0,.02,0,.03,0,.01,0,.03.01.05,0,.02.02.04.03.06.01.02.03.05.05.07.02.02.04.05.07.07.05.04.1.08.16.12.06.04.12.07.17.1.06.03.11.05.16.07.05.02.09.03.12.04.03.01.04.01.04.01Z"/>
                </g>
              </g>
              <path class="cls-34" d="m2.9,10.58h5.33c.12,0,.23-.1.23-.23s-.1-.23-.23-.23H2.9c-.13,0-.23.1-.23.23s.1.23.23.23Z"/>
              <path class="cls-35" d="m2.9,10.13h3.04c-.14.11-.13.37.03.45h-3.07c-.13,0-.23-.1-.23-.23s.1-.23.23-.23Z"/>
            </g>
            <g class="cls-54">
              <path class="cls-13" d="m6.12,3.25c-.16.12-.01.34.07.46.08.11.16.2.24.31.04.05.15.16.15.24,0,.04-.21,0-.24,0-.09-.01-.18,0-.27.01-.26.04-.55.14-.81,0-.55-.28-.1-.99.13-1.33.16-.24.33-.5.43-.78,0,.03.01.06.02.08.01.15.05.3.11.43.07.17.17.32.31.43.05.04.1.07.15.1-.1,0-.22,0-.3.06Z"/>
            </g>
            <g class="cls-55">
              <path class="cls-6" d="m2.64,5.1c.1-.81.74-1.9.95-2.17.27-.35.65-.71,1.1-.81.12-.03.26-.06.38-.06-1.77.96-2.39,2.78-2.43,3.05Z"/>
            </g>
          </g>
          <g class="cls-53">
            <path class="cls-38" d="m5.33.16s0,0,.01,0c0,0,0,0,0,0,.04.04.09.07.13.1.27.21.7.58.84.75.16.19.12.23.05.32,0,0,.45.09,1.24.62.21.14.36.26.39.3,0,0,0,0,0,0,0,0,0,0,0,0,0,0,0,0,0,0,0,0,0,0,0,0,0,0,0,0,0,0,0,0,0,0,0,0,0,0,0,0,0,0,0,0,0,0,0,0,0,0,0,0,0,0,0,0,0,0,0,0,0,0,0,0,0,0,0,0,0,0,0,0,0,0-.01,0-.02.01,0,0,0,0,0,0,0,0-.01,0-.02.01,0,0,0,0,0,0,0,0,0,0-.01.01h0s-.01,0-.02.01c0,0,0,0,0,0,0,0-.01,0-.02.01h0c-.14.08-.34.15-.34.15,1.25.86,2.16,2.38,2.21,2.47,0,0,0,0,0,0,.45.07.48.24.38.67-.06.24-.17.45-.26.59.04-.15.06-.3.06-.46,0-.14-.04-.36-.2-.41-.11-.03-.21,0-.32.02-.14.04-.29.05-.43.05-.96-.06-1.07-1.18-1.29-1.9-.11-.36-.26-.73-.58-.95-.21-.15-.46-.25-.72-.25-.22,0-.55,0-.52-.3.04-.33.34-.67.06-.96-.16-.17-.4-.28-.54-.48-.13-.19-.2-.4-.27-.61.07.04.15.09.22.14Z"/>
          </g>
          <g class="cls-45">
            <g class="cls-42">
              <path class="cls-41" d="m7.76,12.26c.35.08.81.6.88,1.21h-1.32c0-.38-.06-.93-.35-1.21h.79Z"/>
            </g>
          </g>
        </g>
      </g>
    </g>
  </g>
</svg>