<?xml version="1.0" encoding="UTF-8"?>
<svg xmlns="http://www.w3.org/2000/svg" xmlns:xlink="http://www.w3.org/1999/xlink" viewBox="0 0 7.28 12.08">
  <defs>
    <style>
      .cls-1 {
        filter: url(#luminosity-noclip-11);
      }

      .cls-2 {
        fill: url(#linear-gradient-19);
      }

      .cls-2, .cls-3, .cls-4, .cls-5, .cls-6, .cls-7, .cls-8, .cls-9, .cls-10, .cls-11, .cls-12, .cls-13, .cls-14, .cls-15, .cls-16, .cls-17, .cls-18, .cls-19, .cls-20, .cls-21, .cls-22, .cls-23, .cls-24, .cls-25, .cls-26, .cls-27, .cls-28, .cls-29, .cls-30, .cls-31, .cls-32 {
        stroke-width: 0px;
      }

      .cls-2, .cls-4, .cls-9, .cls-10, .cls-11, .cls-12, .cls-33, .cls-22, .cls-28, .cls-29, .cls-31, .cls-32 {
        mix-blend-mode: multiply;
      }

      .cls-3 {
        fill: url(#linear-gradient-18);
      }

      .cls-3, .cls-6, .cls-8, .cls-14, .cls-15, .cls-21, .cls-33, .cls-25, .cls-26, .cls-27, .cls-28 {
        opacity: .5;
      }

      .cls-3, .cls-6, .cls-8, .cls-14, .cls-15, .cls-21, .cls-25, .cls-26, .cls-27 {
        mix-blend-mode: screen;
      }

      .cls-4 {
        fill: url(#linear-gradient-23);
      }

      .cls-34 {
        filter: url(#luminosity-noclip-17);
      }

      .cls-5 {
        fill: url(#linear-gradient);
      }

      .cls-35 {
        mask: url(#mask-10);
      }

      .cls-6 {
        fill: url(#linear-gradient-16);
      }

      .cls-36 {
        filter: url(#luminosity-noclip-7);
      }

      .cls-37 {
        filter: url(#luminosity-noclip-13);
      }

      .cls-38 {
        mask: url(#mask-17);
      }

      .cls-7 {
        fill: url(#linear-gradient-6);
      }

      .cls-8 {
        fill: url(#linear-gradient-24);
      }

      .cls-39 {
        filter: url(#luminosity-noclip-5);
      }

      .cls-9 {
        fill: url(#linear-gradient-15);
      }

      .cls-10 {
        fill: url(#linear-gradient-25);
      }

      .cls-40 {
        mask: url(#mask-2);
      }

      .cls-11 {
        fill: url(#linear-gradient-11);
      }

      .cls-41 {
        isolation: isolate;
      }

      .cls-42 {
        mask: url(#mask-13);
      }

      .cls-12 {
        fill: url(#radial-gradient);
      }

      .cls-43 {
        mask: url(#mask-3);
      }

      .cls-13 {
        fill: url(#linear-gradient-5);
      }

      .cls-44 {
        filter: url(#luminosity-noclip-15);
      }

      .cls-14 {
        fill: url(#radial-gradient-2);
      }

      .cls-45 {
        mask: url(#mask-9);
      }

      .cls-46 {
        mask: url(#mask-12);
      }

      .cls-47 {
        mask: url(#mask-5);
      }

      .cls-15 {
        fill: url(#linear-gradient-20);
      }

      .cls-16 {
        fill: url(#linear-gradient-13);
      }

      .cls-17 {
        fill: url(#linear-gradient-22);
      }

      .cls-18 {
        fill: #b9b8b9;
      }

      .cls-19 {
        fill: url(#linear-gradient-14);
      }

      .cls-20 {
        fill: url(#linear-gradient-2);
      }

      .cls-48 {
        filter: url(#luminosity-noclip-9);
      }

      .cls-21 {
        fill: url(#linear-gradient-8);
      }

      .cls-49 {
        mask: url(#mask-8);
      }

      .cls-50 {
        mask: url(#mask-4);
      }

      .cls-22 {
        fill: url(#linear-gradient-17);
      }

      .cls-23, .cls-28 {
        fill: #d0d0d1;
      }

      .cls-51 {
        mask: url(#mask-19);
      }

      .cls-52 {
        mask: url(#mask-15);
      }

      .cls-24 {
        fill: url(#linear-gradient-9);
      }

      .cls-25 {
        fill: url(#linear-gradient-26);
      }

      .cls-53 {
        mask: url(#mask-6);
      }

      .cls-54 {
        mask: url(#mask-16);
      }

      .cls-26 {
        fill: url(#linear-gradient-12);
      }

      .cls-55 {
        mask: url(#mask-18);
      }

      .cls-56 {
        filter: url(#luminosity-noclip);
      }

      .cls-57 {
        mask: url(#mask-1);
      }

      .cls-58 {
        mask: url(#mask);
      }

      .cls-27 {
        fill: url(#linear-gradient-4);
      }

      .cls-59 {
        mask: url(#mask-7);
      }

      .cls-29 {
        fill: url(#linear-gradient-3);
      }

      .cls-30 {
        fill: url(#linear-gradient-10);
      }

      .cls-31 {
        fill: url(#linear-gradient-7);
      }

      .cls-32 {
        fill: url(#linear-gradient-21);
      }

      .cls-60 {
        mask: url(#mask-14);
      }

      .cls-61 {
        filter: url(#luminosity-noclip-19);
      }

      .cls-62 {
        mask: url(#mask-11);
      }

      .cls-63 {
        filter: url(#luminosity-noclip-3);
      }
    </style>
    <linearGradient id="linear-gradient" x1="1725.16" y1="10.7" x2="1730.45" y2="10.7" gradientTransform="translate(-1725.62)" gradientUnits="userSpaceOnUse">
      <stop offset="0" stop-color="#b9b8b9"/>
      <stop offset=".2" stop-color="#e2e2e2"/>
      <stop offset=".29" stop-color="#d7d7d7"/>
      <stop offset=".46" stop-color="#c8c8c8"/>
      <stop offset=".6" stop-color="#c3c3c3"/>
      <stop offset="1" stop-color="#b9b8b9"/>
    </linearGradient>
    <linearGradient id="linear-gradient-2" x1="1725.62" y1="11.47" x2="1732.9" y2="11.47" gradientTransform="translate(-1725.62)" gradientUnits="userSpaceOnUse">
      <stop offset="0" stop-color="#e2e2e2"/>
      <stop offset=".09" stop-color="#d7d7d7"/>
      <stop offset=".27" stop-color="#c8c8c8"/>
      <stop offset=".42" stop-color="#c3c3c3"/>
      <stop offset=".85" stop-color="#b9b8b9"/>
    </linearGradient>
    <filter id="luminosity-noclip" x="0" y="10.87" width="7.28" height="1.21" color-interpolation-filters="sRGB" filterUnits="userSpaceOnUse">
      <feFlood flood-color="#fff" result="bg"/>
      <feBlend in="SourceGraphic" in2="bg"/>
    </filter>
    <filter id="luminosity-noclip-2" x="0" y="-8185.53" width="7.28" height="32766" color-interpolation-filters="sRGB" filterUnits="userSpaceOnUse">
      <feFlood flood-color="#fff" result="bg"/>
      <feBlend in="SourceGraphic" in2="bg"/>
    </filter>
    <mask id="mask-1" x="0" y="-8185.53" width="7.28" height="32766" maskUnits="userSpaceOnUse"/>
    <linearGradient id="linear-gradient-3" x1="1725.86" y1="11.47" x2="1728.77" y2="11.47" gradientTransform="translate(-1725.62)" gradientUnits="userSpaceOnUse">
      <stop offset="0" stop-color="#fff"/>
      <stop offset=".07" stop-color="#dfdfdf"/>
      <stop offset=".21" stop-color="#8f8f8f"/>
      <stop offset=".43" stop-color="#101010"/>
      <stop offset=".46" stop-color="#000"/>
    </linearGradient>
    <mask id="mask" x="0" y="10.87" width="7.28" height="1.21" maskUnits="userSpaceOnUse">
      <g class="cls-56">
        <g class="cls-57">
          <path class="cls-29" d="m7.28,12.07c0-.67-.42-1.21-.93-1.21H.93C.42,10.87,0,11.41,0,12.07H0s7.28,0,7.28,0h0Z"/>
        </g>
      </g>
    </mask>
    <linearGradient id="linear-gradient-4" x1="1725.86" y1="11.47" x2="1728.77" y2="11.47" gradientTransform="translate(-1725.62)" gradientUnits="userSpaceOnUse">
      <stop offset="0" stop-color="#fff"/>
      <stop offset=".25" stop-color="#dfdfdf"/>
      <stop offset=".46" stop-color="#c3c3c3"/>
    </linearGradient>
    <linearGradient id="linear-gradient-5" x1="1727.93" y1="1.39" x2="1730.78" y2="1.39" xlink:href="#linear-gradient-2"/>
    <filter id="luminosity-noclip-3" x="2.24" y="0" width="2.79" height="2.79" color-interpolation-filters="sRGB" filterUnits="userSpaceOnUse">
      <feFlood flood-color="#fff" result="bg"/>
      <feBlend in="SourceGraphic" in2="bg"/>
    </filter>
    <filter id="luminosity-noclip-4" x="2.24" y="-8185.53" width="2.79" height="32766" color-interpolation-filters="sRGB" filterUnits="userSpaceOnUse">
      <feFlood flood-color="#fff" result="bg"/>
      <feBlend in="SourceGraphic" in2="bg"/>
    </filter>
    <mask id="mask-3" x="2.24" y="-8185.53" width="2.79" height="32766" maskUnits="userSpaceOnUse"/>
    <radialGradient id="radial-gradient" cx="1730.62" cy="1.52" fx="1730.62" fy="1.52" r="2.41" gradientTransform="translate(-1725.62)" gradientUnits="userSpaceOnUse">
      <stop offset=".42" stop-color="#000"/>
      <stop offset=".46" stop-color="#101010"/>
      <stop offset=".73" stop-color="#8f8f8f"/>
      <stop offset=".92" stop-color="#dfdfdf"/>
      <stop offset="1" stop-color="#fff"/>
    </radialGradient>
    <mask id="mask-2" x="2.24" y="0" width="2.79" height="2.79" maskUnits="userSpaceOnUse">
      <g class="cls-63">
        <g class="cls-43">
          <path class="cls-12" d="m5.03,1.39c0,.77-.62,1.39-1.39,1.39s-1.39-.62-1.39-1.39.62-1.39,1.39-1.39,1.39.62,1.39,1.39Z"/>
        </g>
      </g>
    </mask>
    <radialGradient id="radial-gradient-2" cx="1730.62" cy="1.52" fx="1730.62" fy="1.52" r="2.41" gradientTransform="translate(-1725.62)" gradientUnits="userSpaceOnUse">
      <stop offset=".42" stop-color="#c3c3c3"/>
      <stop offset=".68" stop-color="#dfdfdf"/>
      <stop offset="1" stop-color="#fff"/>
    </radialGradient>
    <linearGradient id="linear-gradient-6" x1="1726.93" y1="5.6" x2="1731.59" y2="5.6" xlink:href="#linear-gradient-2"/>
    <filter id="luminosity-noclip-5" x="1.31" y="3.61" width="4.66" height="3.99" color-interpolation-filters="sRGB" filterUnits="userSpaceOnUse">
      <feFlood flood-color="#fff" result="bg"/>
      <feBlend in="SourceGraphic" in2="bg"/>
    </filter>
    <filter id="luminosity-noclip-6" x="1.31" y="-8185.53" width="4.66" height="32766" color-interpolation-filters="sRGB" filterUnits="userSpaceOnUse">
      <feFlood flood-color="#fff" result="bg"/>
      <feBlend in="SourceGraphic" in2="bg"/>
    </filter>
    <mask id="mask-5" x="1.31" y="-8185.53" width="4.66" height="32766" maskUnits="userSpaceOnUse"/>
    <linearGradient id="linear-gradient-7" x1="1727.33" y1="5.6" x2="1730.15" y2="5.6" gradientTransform="translate(-1725.62)" gradientUnits="userSpaceOnUse">
      <stop offset="0" stop-color="#fff"/>
      <stop offset=".1" stop-color="#dfdfdf"/>
      <stop offset=".34" stop-color="#8f8f8f"/>
      <stop offset=".67" stop-color="#101010"/>
      <stop offset=".72" stop-color="#000"/>
    </linearGradient>
    <mask id="mask-4" x="1.31" y="3.61" width="4.66" height="3.99" maskUnits="userSpaceOnUse">
      <g class="cls-39">
        <g class="cls-47">
          <path class="cls-31" d="m4.42,3.91l-.05-.3-.73.07-.73-.07-.05.3s-.12,2.81-1.55,3.56l2.12.12h.42l2.12-.12c-1.43-.75-1.55-3.56-1.55-3.56Z"/>
        </g>
      </g>
    </mask>
    <linearGradient id="linear-gradient-8" x1="1727.33" y1="5.6" x2="1730.15" y2="5.6" gradientTransform="translate(-1725.62)" gradientUnits="userSpaceOnUse">
      <stop offset="0" stop-color="#fff"/>
      <stop offset=".39" stop-color="#dfdfdf"/>
      <stop offset=".72" stop-color="#c3c3c3"/>
    </linearGradient>
    <linearGradient id="linear-gradient-9" x1="1726.61" y1="3.67" x2="1729.87" y2="3.67" xlink:href="#linear-gradient"/>
    <linearGradient id="linear-gradient-10" x1="1726.25" y1="9.1" x2="1732.27" y2="9.1" xlink:href="#linear-gradient-2"/>
    <filter id="luminosity-noclip-7" x=".62" y="7.69" width="6.03" height="2.8" color-interpolation-filters="sRGB" filterUnits="userSpaceOnUse">
      <feFlood flood-color="#fff" result="bg"/>
      <feBlend in="SourceGraphic" in2="bg"/>
    </filter>
    <filter id="luminosity-noclip-8" x=".62" y="-8185.53" width="6.03" height="32766" color-interpolation-filters="sRGB" filterUnits="userSpaceOnUse">
      <feFlood flood-color="#fff" result="bg"/>
      <feBlend in="SourceGraphic" in2="bg"/>
    </filter>
    <mask id="mask-7" x=".62" y="-8185.53" width="6.03" height="32766" maskUnits="userSpaceOnUse"/>
    <linearGradient id="linear-gradient-11" x1="1726.18" y1="9.1" x2="1731.61" y2="9.1" gradientTransform="translate(-1725.62)" gradientUnits="userSpaceOnUse">
      <stop offset="0" stop-color="#fff"/>
      <stop offset=".14" stop-color="#b3b3b3"/>
      <stop offset=".27" stop-color="#737373"/>
      <stop offset=".39" stop-color="#414141"/>
      <stop offset=".5" stop-color="#1d1d1d"/>
      <stop offset=".58" stop-color="#070707"/>
      <stop offset=".64" stop-color="#000"/>
    </linearGradient>
    <mask id="mask-6" x=".62" y="7.69" width="6.03" height="2.8" maskUnits="userSpaceOnUse">
      <g class="cls-36">
        <g class="cls-59">
          <path class="cls-11" d="m5.7,7.78l-1.18-.09-.88.03-.88-.03-1.18.09s-1,.37-.95,1.58c.04.81.55,1.13.55,1.13h4.92s.51-.33.55-1.13c.06-1.21-.95-1.58-.95-1.58Z"/>
        </g>
      </g>
    </mask>
    <linearGradient id="linear-gradient-12" x1="1726.18" y1="9.1" x2="1731.61" y2="9.1" gradientTransform="translate(-1725.62)" gradientUnits="userSpaceOnUse">
      <stop offset="0" stop-color="#fff"/>
      <stop offset=".25" stop-color="#e0e0e0"/>
      <stop offset=".48" stop-color="#cacaca"/>
      <stop offset=".64" stop-color="#c3c3c3"/>
    </linearGradient>
    <linearGradient id="linear-gradient-13" x1="1725.07" y1="7.63" x2="1730.07" y2="7.63" xlink:href="#linear-gradient"/>
    <linearGradient id="linear-gradient-14" x1="1727.24" y1="2.99" x2="1730.7" y2="2.99" xlink:href="#linear-gradient-2"/>
    <filter id="luminosity-noclip-9" x="1.76" y="2.55" width="3.75" height=".88" color-interpolation-filters="sRGB" filterUnits="userSpaceOnUse">
      <feFlood flood-color="#fff" result="bg"/>
      <feBlend in="SourceGraphic" in2="bg"/>
    </filter>
    <filter id="luminosity-noclip-10" x="1.76" y="-8185.53" width="3.75" height="32766" color-interpolation-filters="sRGB" filterUnits="userSpaceOnUse">
      <feFlood flood-color="#fff" result="bg"/>
      <feBlend in="SourceGraphic" in2="bg"/>
    </filter>
    <mask id="mask-9" x="1.76" y="-8185.53" width="3.75" height="32766" maskUnits="userSpaceOnUse"/>
    <linearGradient id="linear-gradient-15" x1="1728.15" y1="2.99" x2="1730.7" y2="2.99" gradientTransform="translate(-1725.62)" gradientUnits="userSpaceOnUse">
      <stop offset="0" stop-color="#fff"/>
      <stop offset=".08" stop-color="#dfdfdf"/>
      <stop offset=".27" stop-color="#8f8f8f"/>
      <stop offset=".54" stop-color="#101010"/>
      <stop offset=".58" stop-color="#000"/>
    </linearGradient>
    <mask id="mask-8" x="1.76" y="2.55" width="3.75" height=".88" maskUnits="userSpaceOnUse">
      <g class="cls-48">
        <g class="cls-45">
          <polygon class="cls-9" points="4.42 2.55 3.8 2.55 3.48 2.55 2.86 2.55 1.76 3.43 3.48 3.43 3.8 3.43 5.51 3.43 4.42 2.55"/>
        </g>
      </g>
    </mask>
    <linearGradient id="linear-gradient-16" x1="1728.15" y1="2.99" x2="1730.7" y2="2.99" gradientTransform="translate(-1725.62)" gradientUnits="userSpaceOnUse">
      <stop offset="0" stop-color="#fff"/>
      <stop offset=".32" stop-color="#dfdfdf"/>
      <stop offset=".58" stop-color="#c3c3c3"/>
    </linearGradient>
    <filter id="luminosity-noclip-11" x=".67" y="10.86" width="1.77" height="1.22" color-interpolation-filters="sRGB" filterUnits="userSpaceOnUse">
      <feFlood flood-color="#fff" result="bg"/>
      <feBlend in="SourceGraphic" in2="bg"/>
    </filter>
    <filter id="luminosity-noclip-12" x=".67" y="-8185.53" width="1.77" height="32766" color-interpolation-filters="sRGB" filterUnits="userSpaceOnUse">
      <feFlood flood-color="#fff" result="bg"/>
      <feBlend in="SourceGraphic" in2="bg"/>
    </filter>
    <mask id="mask-11" x=".67" y="-8185.53" width="1.77" height="32766" maskUnits="userSpaceOnUse"/>
    <linearGradient id="linear-gradient-17" x1="1726.82" y1="12.07" x2="1727.56" y2="10.52" gradientTransform="translate(-1725.62)" gradientUnits="userSpaceOnUse">
      <stop offset="0" stop-color="#fff"/>
      <stop offset=".13" stop-color="#dfdfdf"/>
      <stop offset=".41" stop-color="#8f8f8f"/>
      <stop offset=".83" stop-color="#101010"/>
      <stop offset=".88" stop-color="#000"/>
    </linearGradient>
    <mask id="mask-10" x=".67" y="10.86" width="1.77" height="1.22" maskUnits="userSpaceOnUse">
      <g class="cls-1">
        <g class="cls-62">
          <path class="cls-22" d="m.67,12.08h1.2c0-.21,0-.42.05-.62.08-.28.28-.5.53-.6h-.83s-.94.14-.95,1.22Z"/>
        </g>
      </g>
    </mask>
    <linearGradient id="linear-gradient-18" x1="1726.82" y1="12.07" x2="1727.56" y2="10.52" gradientTransform="translate(-1725.62)" gradientUnits="userSpaceOnUse">
      <stop offset="0" stop-color="#fff"/>
      <stop offset=".88" stop-color="#fff"/>
    </linearGradient>
    <filter id="luminosity-noclip-13" x="1.12" y="7.78" width="1.64" height="2.72" color-interpolation-filters="sRGB" filterUnits="userSpaceOnUse">
      <feFlood flood-color="#fff" result="bg"/>
      <feBlend in="SourceGraphic" in2="bg"/>
    </filter>
    <filter id="luminosity-noclip-14" x="1.12" y="-8185.53" width="1.64" height="32766" color-interpolation-filters="sRGB" filterUnits="userSpaceOnUse">
      <feFlood flood-color="#fff" result="bg"/>
      <feBlend in="SourceGraphic" in2="bg"/>
    </filter>
    <mask id="mask-13" x="1.12" y="-8185.53" width="1.64" height="32766" maskUnits="userSpaceOnUse"/>
    <linearGradient id="linear-gradient-19" x1="1726.93" y1="11.35" x2="1728.04" y2="7.7" gradientTransform="translate(-1725.62)" gradientUnits="userSpaceOnUse">
      <stop offset="0" stop-color="#000"/>
      <stop offset=".07" stop-color="#1f1f1f"/>
      <stop offset=".22" stop-color="#6f6f6f"/>
      <stop offset=".45" stop-color="#eee"/>
      <stop offset=".48" stop-color="#fff"/>
      <stop offset=".52" stop-color="#f9f9f9"/>
      <stop offset=".57" stop-color="#ebebeb"/>
      <stop offset=".62" stop-color="#d3d3d3"/>
      <stop offset=".68" stop-color="#b1b1b1"/>
      <stop offset=".74" stop-color="#868686"/>
      <stop offset=".8" stop-color="#515151"/>
      <stop offset=".86" stop-color="#131313"/>
      <stop offset=".88" stop-color="#000"/>
    </linearGradient>
    <mask id="mask-12" x="1.12" y="7.78" width="1.64" height="2.72" maskUnits="userSpaceOnUse">
      <g class="cls-37">
        <g class="cls-42">
          <path class="cls-2" d="m1.93,7.8c-.44.25-.71.78-.78,1.27-.04.28-.03.56.07.83.05.14.12.28.2.4.04.06.08.12.14.17.04.04.05.03.05.04,0,0,0,0,0,0h.84s-.05-.07-.08-.11c-.08-.12-.13-.26-.17-.39-.08-.33-.1-.68-.02-1.01.08-.32.22-.62.4-.89.04-.07.12-.19.19-.31h-.84s0,.01,0,.01Z"/>
        </g>
      </g>
    </mask>
    <linearGradient id="linear-gradient-20" x1="1726.93" y1="11.35" x2="1728.04" y2="7.7" gradientTransform="translate(-1725.62)" gradientUnits="userSpaceOnUse">
      <stop offset="0" stop-color="#c3c3c3"/>
      <stop offset=".26" stop-color="#e2e2e2"/>
      <stop offset=".48" stop-color="#fff"/>
      <stop offset=".88" stop-color="#fff"/>
    </linearGradient>
    <filter id="luminosity-noclip-15" x="2.42" y="0" width="1.28" height="2.53" color-interpolation-filters="sRGB" filterUnits="userSpaceOnUse">
      <feFlood flood-color="#fff" result="bg"/>
      <feBlend in="SourceGraphic" in2="bg"/>
    </filter>
    <filter id="luminosity-noclip-16" x="2.42" y="-8185.53" width="1.28" height="32766" color-interpolation-filters="sRGB" filterUnits="userSpaceOnUse">
      <feFlood flood-color="#fff" result="bg"/>
      <feBlend in="SourceGraphic" in2="bg"/>
    </filter>
    <mask id="mask-15" x="2.42" y="-8185.53" width="1.28" height="32766" maskUnits="userSpaceOnUse"/>
    <linearGradient id="linear-gradient-21" x1="1728.44" y1="-.05" x2="1728.96" y2="2.73" xlink:href="#linear-gradient-17"/>
    <mask id="mask-14" x="2.42" y="0" width="1.28" height="2.53" maskUnits="userSpaceOnUse">
      <g class="cls-44">
        <g class="cls-52">
          <path class="cls-32" d="m2.74,1.21C2.74.69,3.06.23,3.5,0c-.2.02-.38.08-.55.17-.08.07-.15.14-.22.21-.18.21-.29.47-.31.75-.02.28.03.56.16.81.06.12.14.24.24.34.05.05.1.09.15.13.04.03.14.1.16.12h.56c-.57-.16-.96-.72-.96-1.33Z"/>
        </g>
      </g>
    </mask>
    <linearGradient id="linear-gradient-22" x1="1728.44" y1="-.05" x2="1728.96" y2="2.73" xlink:href="#linear-gradient-18"/>
    <filter id="luminosity-noclip-17" x="1.75" y="3.9" width="1.75" height="3.57" color-interpolation-filters="sRGB" filterUnits="userSpaceOnUse">
      <feFlood flood-color="#fff" result="bg"/>
      <feBlend in="SourceGraphic" in2="bg"/>
    </filter>
    <filter id="luminosity-noclip-18" x="1.75" y="-8185.53" width="1.75" height="32766" color-interpolation-filters="sRGB" filterUnits="userSpaceOnUse">
      <feFlood flood-color="#fff" result="bg"/>
      <feBlend in="SourceGraphic" in2="bg"/>
    </filter>
    <mask id="mask-17" x="1.75" y="-8185.53" width="1.75" height="32766" maskUnits="userSpaceOnUse"/>
    <linearGradient id="linear-gradient-23" x1="1727.49" y1="7.63" x2="1729.58" y2="3.96" xlink:href="#linear-gradient-17"/>
    <mask id="mask-16" x="1.75" y="3.9" width="1.75" height="3.57" maskUnits="userSpaceOnUse">
      <g class="cls-34">
        <g class="cls-38">
          <path class="cls-4" d="m3.02,3.91s0,.07,0,.15c-.02.19-.07.5-.09.65-.06.41-.15.83-.27,1.23-.13.45-.3.89-.61,1.25-.02.03-.29.28-.3.27h1.19s0,0,0,0c.12-.23.22-.5.29-.75.06-.25.09-.51.11-.77.05-.52.12-1.03.15-1.55,0-.15.01-.35.02-.5h-.5s0,0,0,0Z"/>
        </g>
      </g>
    </mask>
    <linearGradient id="linear-gradient-24" x1="1727.49" y1="7.63" x2="1729.58" y2="3.96" xlink:href="#linear-gradient-18"/>
    <filter id="luminosity-noclip-19" x="2.27" y="2.54" width="1.46" height=".89" color-interpolation-filters="sRGB" filterUnits="userSpaceOnUse">
      <feFlood flood-color="#fff" result="bg"/>
      <feBlend in="SourceGraphic" in2="bg"/>
    </filter>
    <filter id="luminosity-noclip-20" x="2.27" y="-8185.53" width="1.46" height="32766" color-interpolation-filters="sRGB" filterUnits="userSpaceOnUse">
      <feFlood flood-color="#fff" result="bg"/>
      <feBlend in="SourceGraphic" in2="bg"/>
    </filter>
    <mask id="mask-19" x="2.27" y="-8185.53" width="1.46" height="32766" maskUnits="userSpaceOnUse"/>
    <linearGradient id="linear-gradient-25" x1="1728.51" y1="3.5" x2="1728.76" y2="2.28" xlink:href="#linear-gradient-17"/>
    <mask id="mask-18" x="2.27" y="2.54" width="1.46" height=".89" maskUnits="userSpaceOnUse">
      <g class="cls-61">
        <g class="cls-51">
          <path class="cls-10" d="m3,3.28c.06-.08.56-.59.72-.74,0,0-.01,0-.02,0h-.56s0,0,0,0c-.06.12-.21.23-.3.32-.14.14-.28.27-.42.41-.05.05-.11.1-.16.15h.7s0,0,0,0c0,0-.03-.04.05-.14Z"/>
        </g>
      </g>
    </mask>
    <linearGradient id="linear-gradient-26" x1="1728.51" y1="3.5" x2="1728.76" y2="2.28" xlink:href="#linear-gradient-18"/>
  </defs>
  <g class="cls-41">
    <g id="Capa_2" data-name="Capa 2">
      <g id="Layer_1" data-name="Layer 1">
        <g>
          <g>
            <g>
              <path class="cls-5" d="m6.37,10.79c0-.16-.13-.29-.28-.29H1.19c-.16,0-.28.13-.28.29,0,.03,0,.09,0,.11h5.44s0-.09,0-.11Z"/>
              <g class="cls-33">
                <path class="cls-18" d="m6.37,10.75H.91s0,.03,0,.04c0,.03,0,.09,0,.11h5.44s0-.09,0-.11c0-.02,0-.03,0-.04Z"/>
              </g>
              <path class="cls-20" d="m7.28,12.07c0-.67-.42-1.21-.93-1.21H.93C.42,10.87,0,11.41,0,12.07H0s7.28,0,7.28,0h0Z"/>
              <g class="cls-58">
                <path class="cls-27" d="m7.28,12.07c0-.67-.42-1.21-.93-1.21H.93C.42,10.87,0,11.41,0,12.07H0s7.28,0,7.28,0h0Z"/>
              </g>
              <path class="cls-28" d="m6.35,10.87h-1.99s-.06.06-.1.09c-.59.47-1.3.76-2.04.91-.17.04-.83.19-2.23.2,0,0,0,0,0,0h7.28c0-.67-.42-1.21-.93-1.21Z"/>
            </g>
            <path class="cls-13" d="m5.03,1.39c0,.77-.62,1.39-1.39,1.39s-1.39-.62-1.39-1.39.62-1.39,1.39-1.39,1.39.62,1.39,1.39Z"/>
            <g class="cls-40">
              <path class="cls-14" d="m5.03,1.39c0,.77-.62,1.39-1.39,1.39s-1.39-.62-1.39-1.39.62-1.39,1.39-1.39,1.39.62,1.39,1.39Z"/>
            </g>
            <path class="cls-7" d="m4.42,3.91l-.05-.3-.73.07-.73-.07-.05.3s-.12,2.81-1.55,3.56l2.12.12h.42l2.12-.12c-1.43-.75-1.55-3.56-1.55-3.56Z"/>
            <g class="cls-50">
              <path class="cls-21" d="m4.42,3.91l-.05-.3-.73.07-.73-.07-.05.3s-.12,2.81-1.55,3.56l2.12.12h.42l2.12-.12c-1.43-.75-1.55-3.56-1.55-3.56Z"/>
            </g>
            <path class="cls-28" d="m3.9,4.86c.02.48.06.94.15,1.41.08.4.23.8.52,1.11.06.06.12.12.18.17l1.21-.07c-1.43-.75-1.55-3.56-1.55-3.56l-.05-.3-.53.05c0,.4.04.8.06,1.19Z"/>
            <polygon class="cls-24" points="2.86 3.91 3.48 3.91 3.8 3.91 4.42 3.91 5.51 3.43 3.8 3.43 3.48 3.43 1.76 3.43 2.86 3.91"/>
            <path class="cls-30" d="m5.7,7.78l-1.18-.09-.88.03-.88-.03-1.18.09s-1,.37-.95,1.58c.04.81.55,1.13.55,1.13h4.92s.51-.33.55-1.13c.06-1.21-.95-1.58-.95-1.58Z"/>
            <g class="cls-53">
              <path class="cls-26" d="m5.7,7.78l-1.18-.09-.88.03-.88-.03-1.18.09s-1,.37-.95,1.58c.04.81.55,1.13.55,1.13h4.92s.51-.33.55-1.13c.06-1.21-.95-1.58-.95-1.58Z"/>
            </g>
            <path class="cls-28" d="m5.7,7.78l-.91-.07c.28.31.51.67.54,1.1.03.39-.07.78-.25,1.12-.11.21-.25.4-.42.56h1.44s.51-.33.55-1.13c.06-1.21-.95-1.58-.95-1.58Z"/>
            <polygon class="cls-16" points="1.31 7.47 1.58 7.78 2.88 7.78 4.36 7.78 5.7 7.78 5.97 7.47 1.31 7.47"/>
            <g class="cls-33">
              <path class="cls-23" d="m4.76.56c.04.12.06.26.06.39,0,.77-.62,1.39-1.39,1.39-.46,0-.86-.22-1.12-.56.17.58.7,1,1.34,1,.77,0,1.39-.62,1.39-1.39,0-.31-.1-.6-.28-.83Z"/>
            </g>
            <polygon class="cls-19" points="4.42 2.55 3.8 2.55 3.48 2.55 2.86 2.55 1.76 3.43 3.48 3.43 3.8 3.43 5.51 3.43 4.42 2.55"/>
            <g class="cls-49">
              <polygon class="cls-6" points="4.42 2.55 3.8 2.55 3.48 2.55 2.86 2.55 1.76 3.43 3.48 3.43 3.8 3.43 5.51 3.43 4.42 2.55"/>
            </g>
            <path class="cls-28" d="m4.02,2.83c.13.15.27.28.38.44.04.05.07.11.1.16h1.01l-1.09-.88h-.64c.08.09.16.19.24.29Z"/>
          </g>
          <g>
            <g class="cls-35">
              <path class="cls-3" d="m.67,12.08h1.2c0-.21,0-.42.05-.62.08-.28.28-.5.53-.6h-.83s-.94.14-.95,1.22Z"/>
            </g>
            <g class="cls-46">
              <path class="cls-15" d="m1.93,7.8c-.44.25-.71.78-.78,1.27-.04.28-.03.56.07.83.05.14.12.28.2.4.04.06.08.12.14.17.04.04.05.03.05.04,0,0,0,0,0,0h.84s-.05-.07-.08-.11c-.08-.12-.13-.26-.17-.39-.08-.33-.1-.68-.02-1.01.08-.32.22-.62.4-.89.04-.07.12-.19.19-.31h-.84s0,.01,0,.01Z"/>
            </g>
            <g class="cls-60">
              <path class="cls-17" d="m2.74,1.21C2.74.69,3.06.23,3.5,0c-.2.02-.38.08-.55.17-.08.07-.15.14-.22.21-.18.21-.29.47-.31.75-.02.28.03.56.16.81.06.12.14.24.24.34.05.05.1.09.15.13.04.03.14.1.16.12h.56c-.57-.16-.96-.72-.96-1.33Z"/>
            </g>
            <g class="cls-54">
              <path class="cls-8" d="m3.02,3.91s0,.07,0,.15c-.02.19-.07.5-.09.65-.06.41-.15.83-.27,1.23-.13.45-.3.89-.61,1.25-.02.03-.29.28-.3.27h1.19s0,0,0,0c.12-.23.22-.5.29-.75.06-.25.09-.51.11-.77.05-.52.12-1.03.15-1.55,0-.15.01-.35.02-.5h-.5s0,0,0,0Z"/>
            </g>
            <g class="cls-55">
              <path class="cls-25" d="m3,3.28c.06-.08.56-.59.72-.74,0,0-.01,0-.02,0h-.56s0,0,0,0c-.06.12-.21.23-.3.32-.14.14-.28.27-.42.41-.05.05-.11.1-.16.15h.7s0,0,0,0c0,0-.03-.04.05-.14Z"/>
            </g>
          </g>
        </g>
      </g>
    </g>
  </g>
</svg>