<?xml version="1.0" encoding="UTF-8"?>
<svg xmlns="http://www.w3.org/2000/svg" xmlns:xlink="http://www.w3.org/1999/xlink" viewBox="0 0 7.28 12.08">
  <defs>
    <style>
      .cls-1 {
        fill: url(#linear-gradient);
      }

      .cls-1, .cls-2, .cls-3, .cls-4, .cls-5, .cls-6, .cls-7, .cls-8, .cls-9, .cls-10, .cls-11, .cls-12, .cls-13, .cls-14, .cls-15, .cls-16, .cls-17, .cls-18, .cls-19, .cls-20 {
        stroke-width: 0px;
      }

      .cls-2 {
        fill: url(#linear-gradient-16);
      }

      .cls-2, .cls-21, .cls-9, .cls-13, .cls-22, .cls-16, .cls-17 {
        opacity: .5;
      }

      .cls-2, .cls-9, .cls-13, .cls-16, .cls-17 {
        mix-blend-mode: screen;
      }

      .cls-23 {
        filter: url(#luminosity-noclip-7);
      }

      .cls-3 {
        fill: url(#linear-gradient-6);
      }

      .cls-24 {
        filter: url(#luminosity-noclip-5);
      }

      .cls-4 {
        fill: url(#linear-gradient-15);
      }

      .cls-4, .cls-5, .cls-7, .cls-22, .cls-18, .cls-20 {
        mix-blend-mode: multiply;
      }

      .cls-25 {
        mask: url(#mask-2);
      }

      .cls-5 {
        fill: url(#linear-gradient-11);
      }

      .cls-26 {
        isolation: isolate;
      }

      .cls-7 {
        fill: url(#radial-gradient);
      }

      .cls-27 {
        mask: url(#mask-3);
      }

      .cls-8 {
        fill: url(#linear-gradient-5);
      }

      .cls-9 {
        fill: url(#radial-gradient-2);
      }

      .cls-28 {
        mask: url(#mask-9);
      }

      .cls-29 {
        mask: url(#mask-5);
      }

      .cls-10 {
        fill: url(#linear-gradient-13);
      }

      .cls-11 {
        fill: url(#linear-gradient-14);
      }

      .cls-12 {
        fill: url(#linear-gradient-2);
      }

      .cls-30 {
        filter: url(#luminosity-noclip-9);
      }

      .cls-13 {
        fill: url(#linear-gradient-8);
      }

      .cls-31 {
        mask: url(#mask-8);
      }

      .cls-14 {
        fill: #221f1f;
      }

      .cls-32 {
        mask: url(#mask-4);
      }

      .cls-15 {
        fill: url(#linear-gradient-9);
      }

      .cls-33 {
        mask: url(#mask-6);
      }

      .cls-16 {
        fill: url(#linear-gradient-12);
      }

      .cls-34 {
        filter: url(#luminosity-noclip);
      }

      .cls-35 {
        mask: url(#mask-1);
      }

      .cls-36 {
        mask: url(#mask);
      }

      .cls-17 {
        fill: url(#linear-gradient-4);
      }

      .cls-37 {
        mask: url(#mask-7);
      }

      .cls-18 {
        fill: url(#linear-gradient-3);
      }

      .cls-19 {
        fill: url(#linear-gradient-10);
      }

      .cls-20 {
        fill: url(#linear-gradient-7);
      }

      .cls-38 {
        filter: url(#luminosity-noclip-3);
      }
    </style>
    <linearGradient id="linear-gradient" x1="-.46" y1="10.7" x2="4.83" y2="10.7" gradientUnits="userSpaceOnUse">
      <stop offset="0" stop-color="#221f1f"/>
      <stop offset=".2" stop-color="#a4a6a9"/>
      <stop offset=".25" stop-color="#939598"/>
      <stop offset=".35" stop-color="#707274"/>
      <stop offset=".45" stop-color="#57595a"/>
      <stop offset=".53" stop-color="#484a4b"/>
      <stop offset=".6" stop-color="#434546"/>
      <stop offset=".92" stop-color="#282626"/>
      <stop offset="1" stop-color="#221f1f"/>
    </linearGradient>
    <linearGradient id="linear-gradient-2" x1="0" y1="11.47" x2="7.28" y2="11.47" gradientUnits="userSpaceOnUse">
      <stop offset="0" stop-color="#a4a6a9"/>
      <stop offset=".04" stop-color="#939598"/>
      <stop offset=".15" stop-color="#707274"/>
      <stop offset=".26" stop-color="#57595a"/>
      <stop offset=".35" stop-color="#484a4b"/>
      <stop offset=".42" stop-color="#434546"/>
      <stop offset=".77" stop-color="#282626"/>
      <stop offset=".85" stop-color="#221f1f"/>
    </linearGradient>
    <filter id="luminosity-noclip" x="0" y="10.87" width="7.28" height="1.21" color-interpolation-filters="sRGB" filterUnits="userSpaceOnUse">
      <feFlood flood-color="#fff" result="bg"/>
      <feBlend in="SourceGraphic" in2="bg"/>
    </filter>
    <filter id="luminosity-noclip-2" x="0" y="-8167.65" width="7.28" height="32766" color-interpolation-filters="sRGB" filterUnits="userSpaceOnUse">
      <feFlood flood-color="#fff" result="bg"/>
      <feBlend in="SourceGraphic" in2="bg"/>
    </filter>
    <mask id="mask-1" x="0" y="-8167.65" width="7.28" height="32766" maskUnits="userSpaceOnUse"/>
    <linearGradient id="linear-gradient-3" x1=".24" y1="11.47" x2="3.15" y2="11.47" gradientUnits="userSpaceOnUse">
      <stop offset="0" stop-color="#fff"/>
      <stop offset=".07" stop-color="#dfdfdf"/>
      <stop offset=".21" stop-color="#8f8f8f"/>
      <stop offset=".43" stop-color="#101010"/>
      <stop offset=".46" stop-color="#000"/>
    </linearGradient>
    <mask id="mask" x="0" y="10.87" width="7.28" height="1.21" maskUnits="userSpaceOnUse">
      <g class="cls-34">
        <g class="cls-35">
          <path class="cls-18" d="m7.28,12.07c0-.67-.42-1.21-.93-1.21H.93C.42,10.87,0,11.41,0,12.07H0s7.28,0,7.28,0h0Z"/>
        </g>
      </g>
    </mask>
    <linearGradient id="linear-gradient-4" x1=".24" y1="11.47" x2="3.15" y2="11.47" gradientUnits="userSpaceOnUse">
      <stop offset="0" stop-color="#fff"/>
      <stop offset=".09" stop-color="#dfe0e0"/>
      <stop offset=".28" stop-color="#909192"/>
      <stop offset=".46" stop-color="#434546"/>
    </linearGradient>
    <linearGradient id="linear-gradient-5" x1="2.31" y1="1.39" x2="5.16" y2="1.39" xlink:href="#linear-gradient-2"/>
    <filter id="luminosity-noclip-3" x="2.24" y="0" width="2.79" height="2.79" color-interpolation-filters="sRGB" filterUnits="userSpaceOnUse">
      <feFlood flood-color="#fff" result="bg"/>
      <feBlend in="SourceGraphic" in2="bg"/>
    </filter>
    <filter id="luminosity-noclip-4" x="2.24" y="-8167.65" width="2.79" height="32766" color-interpolation-filters="sRGB" filterUnits="userSpaceOnUse">
      <feFlood flood-color="#fff" result="bg"/>
      <feBlend in="SourceGraphic" in2="bg"/>
    </filter>
    <mask id="mask-3" x="2.24" y="-8167.65" width="2.79" height="32766" maskUnits="userSpaceOnUse"/>
    <radialGradient id="radial-gradient" cx="5" cy="1.52" fx="5" fy="1.52" r="2.41" gradientUnits="userSpaceOnUse">
      <stop offset=".42" stop-color="#000"/>
      <stop offset=".46" stop-color="#101010"/>
      <stop offset=".73" stop-color="#8f8f8f"/>
      <stop offset=".92" stop-color="#dfdfdf"/>
      <stop offset="1" stop-color="#fff"/>
    </radialGradient>
    <mask id="mask-2" x="2.24" y="0" width="2.79" height="2.79" maskUnits="userSpaceOnUse">
      <g class="cls-38">
        <g class="cls-27">
          <path class="cls-7" d="m5.03,1.39c0,.77-.62,1.39-1.39,1.39s-1.39-.62-1.39-1.39.62-1.39,1.39-1.39,1.39.62,1.39,1.39Z"/>
        </g>
      </g>
    </mask>
    <radialGradient id="radial-gradient-2" cx="5" cy="1.52" fx="5" fy="1.52" r="2.41" gradientUnits="userSpaceOnUse">
      <stop offset=".42" stop-color="#434546"/>
      <stop offset=".64" stop-color="#909192"/>
      <stop offset=".89" stop-color="#dfe0e0"/>
      <stop offset="1" stop-color="#fff"/>
    </radialGradient>
    <linearGradient id="linear-gradient-6" x1="1.31" y1="5.6" x2="5.97" y2="5.6" xlink:href="#linear-gradient-2"/>
    <filter id="luminosity-noclip-5" x="1.31" y="3.61" width="4.66" height="3.99" color-interpolation-filters="sRGB" filterUnits="userSpaceOnUse">
      <feFlood flood-color="#fff" result="bg"/>
      <feBlend in="SourceGraphic" in2="bg"/>
    </filter>
    <filter id="luminosity-noclip-6" x="1.31" y="-8167.65" width="4.66" height="32766" color-interpolation-filters="sRGB" filterUnits="userSpaceOnUse">
      <feFlood flood-color="#fff" result="bg"/>
      <feBlend in="SourceGraphic" in2="bg"/>
    </filter>
    <mask id="mask-5" x="1.31" y="-8167.65" width="4.66" height="32766" maskUnits="userSpaceOnUse"/>
    <linearGradient id="linear-gradient-7" x1="1.71" y1="5.6" x2="4.53" y2="5.6" gradientUnits="userSpaceOnUse">
      <stop offset="0" stop-color="#fff"/>
      <stop offset=".1" stop-color="#dfdfdf"/>
      <stop offset=".34" stop-color="#8f8f8f"/>
      <stop offset=".67" stop-color="#101010"/>
      <stop offset=".72" stop-color="#000"/>
    </linearGradient>
    <mask id="mask-4" x="1.31" y="3.61" width="4.66" height="3.99" maskUnits="userSpaceOnUse">
      <g class="cls-24">
        <g class="cls-29">
          <path class="cls-20" d="m4.42,3.91l-.05-.3-.73.08-.73-.08-.05.3s-.12,2.81-1.55,3.56l2.12.12h.42l2.12-.12c-1.43-.75-1.55-3.56-1.55-3.56Z"/>
        </g>
      </g>
    </mask>
    <linearGradient id="linear-gradient-8" x1="1.71" y1="5.6" x2="4.53" y2="5.6" gradientUnits="userSpaceOnUse">
      <stop offset="0" stop-color="#fff"/>
      <stop offset=".14" stop-color="#dfe0e0"/>
      <stop offset=".44" stop-color="#909192"/>
      <stop offset=".72" stop-color="#434546"/>
    </linearGradient>
    <linearGradient id="linear-gradient-9" x1=".99" y1="3.67" x2="4.25" y2="3.67" xlink:href="#linear-gradient"/>
    <linearGradient id="linear-gradient-10" x1=".63" y1="9.1" x2="6.65" y2="9.1" xlink:href="#linear-gradient-2"/>
    <filter id="luminosity-noclip-7" x=".63" y="7.69" width="6.03" height="2.8" color-interpolation-filters="sRGB" filterUnits="userSpaceOnUse">
      <feFlood flood-color="#fff" result="bg"/>
      <feBlend in="SourceGraphic" in2="bg"/>
    </filter>
    <filter id="luminosity-noclip-8" x=".63" y="-8167.65" width="6.03" height="32766" color-interpolation-filters="sRGB" filterUnits="userSpaceOnUse">
      <feFlood flood-color="#fff" result="bg"/>
      <feBlend in="SourceGraphic" in2="bg"/>
    </filter>
    <mask id="mask-7" x=".63" y="-8167.65" width="6.03" height="32766" maskUnits="userSpaceOnUse"/>
    <linearGradient id="linear-gradient-11" x1=".56" y1="9.1" x2="5.99" y2="9.1" gradientUnits="userSpaceOnUse">
      <stop offset="0" stop-color="#fff"/>
      <stop offset=".14" stop-color="#b3b3b3"/>
      <stop offset=".27" stop-color="#737373"/>
      <stop offset=".39" stop-color="#414141"/>
      <stop offset=".5" stop-color="#1d1d1d"/>
      <stop offset=".58" stop-color="#070707"/>
      <stop offset=".64" stop-color="#000"/>
    </linearGradient>
    <mask id="mask-6" x=".63" y="7.69" width="6.03" height="2.8" maskUnits="userSpaceOnUse">
      <g class="cls-23">
        <g class="cls-37">
          <path class="cls-5" d="m5.7,7.78l-1.18-.09-.88.03-.88-.03-1.18.09s-1,.37-.95,1.58c.04.81.55,1.13.55,1.13h4.92s.51-.33.55-1.13c.05-1.21-.95-1.58-.95-1.58Z"/>
        </g>
      </g>
    </mask>
    <linearGradient id="linear-gradient-12" x1=".56" y1="9.1" x2="5.99" y2="9.1" gradientUnits="userSpaceOnUse">
      <stop offset="0" stop-color="#fff"/>
      <stop offset=".02" stop-color="#f5f5f5"/>
      <stop offset=".19" stop-color="#b6b7b7"/>
      <stop offset=".33" stop-color="#848586"/>
      <stop offset=".46" stop-color="#606263"/>
      <stop offset=".57" stop-color="#4a4c4d"/>
      <stop offset=".64" stop-color="#434546"/>
    </linearGradient>
    <linearGradient id="linear-gradient-13" x1="-.55" y1="7.63" x2="4.44" y2="7.63" xlink:href="#linear-gradient"/>
    <linearGradient id="linear-gradient-14" x1="1.61" y1="2.99" x2="5.08" y2="2.99" xlink:href="#linear-gradient-2"/>
    <filter id="luminosity-noclip-9" x="1.76" y="2.55" width="3.75" height=".88" color-interpolation-filters="sRGB" filterUnits="userSpaceOnUse">
      <feFlood flood-color="#fff" result="bg"/>
      <feBlend in="SourceGraphic" in2="bg"/>
    </filter>
    <filter id="luminosity-noclip-10" x="1.76" y="-8167.65" width="3.75" height="32766" color-interpolation-filters="sRGB" filterUnits="userSpaceOnUse">
      <feFlood flood-color="#fff" result="bg"/>
      <feBlend in="SourceGraphic" in2="bg"/>
    </filter>
    <mask id="mask-9" x="1.76" y="-8167.65" width="3.75" height="32766" maskUnits="userSpaceOnUse"/>
    <linearGradient id="linear-gradient-15" x1="2.52" y1="2.99" x2="5.08" y2="2.99" gradientUnits="userSpaceOnUse">
      <stop offset="0" stop-color="#fff"/>
      <stop offset=".08" stop-color="#dfdfdf"/>
      <stop offset=".27" stop-color="#8f8f8f"/>
      <stop offset=".54" stop-color="#101010"/>
      <stop offset=".58" stop-color="#000"/>
    </linearGradient>
    <mask id="mask-8" x="1.76" y="2.55" width="3.75" height=".88" maskUnits="userSpaceOnUse">
      <g class="cls-30">
        <g class="cls-28">
          <polygon class="cls-4" points="4.42 2.55 3.8 2.55 3.48 2.55 2.85 2.55 1.76 3.43 3.48 3.43 3.8 3.43 5.52 3.43 4.42 2.55"/>
        </g>
      </g>
    </mask>
    <linearGradient id="linear-gradient-16" x1="2.52" y1="2.99" x2="5.08" y2="2.99" gradientUnits="userSpaceOnUse">
      <stop offset="0" stop-color="#fff"/>
      <stop offset=".11" stop-color="#dfe0e0"/>
      <stop offset=".36" stop-color="#909192"/>
      <stop offset=".58" stop-color="#434546"/>
    </linearGradient>
  </defs>
  <g class="cls-26">
    <g id="Capa_2" data-name="Capa 2">
      <g id="Layer_1" data-name="Layer 1">
        <g>
          <g>
            <path class="cls-1" d="m6.37,10.79c0-.16-.13-.29-.28-.29H1.19c-.16,0-.28.13-.28.29,0,.03,0,.09,0,.11h5.44s0-.09,0-.11Z"/>
            <g class="cls-22">
              <path class="cls-14" d="m6.37,10.75H.91s0,.03,0,.04c0,.03,0,.09,0,.11h5.44s0-.09,0-.11c0-.01,0-.03,0-.04Z"/>
            </g>
            <path class="cls-12" d="m7.28,12.07c0-.67-.42-1.21-.93-1.21H.93C.42,10.87,0,11.41,0,12.07H0s7.28,0,7.28,0h0Z"/>
            <g class="cls-36">
              <path class="cls-17" d="m7.28,12.07c0-.67-.42-1.21-.93-1.21H.93C.42,10.87,0,11.41,0,12.07H0s7.28,0,7.28,0h0Z"/>
            </g>
            <path class="cls-14" d="m6.35,10.87h-1.99s-.06.06-.1.09c-.59.47-1.3.76-2.04.91-.17.04-.83.19-2.23.2,0,0,0,0,0,0h7.28c0-.67-.42-1.21-.93-1.21Z"/>
          </g>
          <path class="cls-8" d="m5.03,1.39c0,.77-.62,1.39-1.39,1.39s-1.39-.62-1.39-1.39.62-1.39,1.39-1.39,1.39.62,1.39,1.39Z"/>
          <g class="cls-25">
            <path class="cls-9" d="m5.03,1.39c0,.77-.62,1.39-1.39,1.39s-1.39-.62-1.39-1.39.62-1.39,1.39-1.39,1.39.62,1.39,1.39Z"/>
          </g>
          <path class="cls-3" d="m4.42,3.91l-.05-.3-.73.08-.73-.08-.05.3s-.12,2.81-1.55,3.56l2.12.12h.42l2.12-.12c-1.43-.75-1.55-3.56-1.55-3.56Z"/>
          <g class="cls-32">
            <path class="cls-13" d="m4.42,3.91l-.05-.3-.73.08-.73-.08-.05.3s-.12,2.81-1.55,3.56l2.12.12h.42l2.12-.12c-1.43-.75-1.55-3.56-1.55-3.56Z"/>
          </g>
          <path class="cls-14" d="m3.9,4.86c.02.48.06.94.15,1.41.08.4.23.8.52,1.11.06.06.12.12.18.17l1.21-.07c-1.43-.75-1.55-3.56-1.55-3.56l-.05-.3-.53.05c0,.4.04.8.06,1.2Z"/>
          <polygon class="cls-15" points="2.85 3.91 3.48 3.91 3.8 3.91 4.42 3.91 5.52 3.43 3.8 3.43 3.48 3.43 1.76 3.43 2.85 3.91"/>
          <path class="cls-19" d="m5.7,7.78l-1.18-.09-.88.03-.88-.03-1.18.09s-1,.37-.95,1.58c.04.81.55,1.13.55,1.13h4.92s.51-.33.55-1.13c.05-1.21-.95-1.58-.95-1.58Z"/>
          <g class="cls-33">
            <path class="cls-16" d="m5.7,7.78l-1.18-.09-.88.03-.88-.03-1.18.09s-1,.37-.95,1.58c.04.81.55,1.13.55,1.13h4.92s.51-.33.55-1.13c.05-1.21-.95-1.58-.95-1.58Z"/>
          </g>
          <path class="cls-14" d="m5.7,7.78l-.91-.07c.28.31.51.67.54,1.1.03.39-.07.78-.25,1.12-.11.21-.25.4-.42.56h1.44s.51-.33.55-1.13c.05-1.21-.95-1.58-.95-1.58Z"/>
          <polygon class="cls-10" points="1.31 7.47 1.57 7.78 2.88 7.78 4.36 7.78 5.7 7.78 5.97 7.47 1.31 7.47"/>
          <g class="cls-21">
            <path class="cls-6" d="m4.76.56c.04.12.06.26.06.39,0,.77-.62,1.39-1.39,1.39-.46,0-.86-.22-1.12-.56.17.58.7,1,1.34,1,.77,0,1.39-.62,1.39-1.39,0-.31-.1-.6-.28-.83Z"/>
          </g>
          <polygon class="cls-11" points="4.42 2.55 3.8 2.55 3.48 2.55 2.85 2.55 1.76 3.43 3.48 3.43 3.8 3.43 5.52 3.43 4.42 2.55"/>
          <g class="cls-31">
            <polygon class="cls-2" points="4.42 2.55 3.8 2.55 3.48 2.55 2.85 2.55 1.76 3.43 3.48 3.43 3.8 3.43 5.52 3.43 4.42 2.55"/>
          </g>
          <path class="cls-14" d="m4.02,2.83c.13.15.27.28.38.44.04.05.07.11.1.16h1.01l-1.09-.88h-.64c.08.09.16.19.24.29Z"/>
        </g>
      </g>
    </g>
  </g>
</svg>