<?xml version="1.0" encoding="UTF-8"?>
<svg xmlns="http://www.w3.org/2000/svg" xmlns:xlink="http://www.w3.org/1999/xlink" viewBox="0 0 7.28 14.85">
  <defs>
    <style>
      .cls-1 {
        filter: url(#luminosity-noclip-11);
      }

      .cls-2 {
        fill: url(#linear-gradient-23);
      }

      .cls-2, .cls-3, .cls-4, .cls-5, .cls-6, .cls-7, .cls-8, .cls-9, .cls-10, .cls-11, .cls-12, .cls-13, .cls-14, .cls-15, .cls-16, .cls-17, .cls-18, .cls-19, .cls-20, .cls-21, .cls-22, .cls-23, .cls-24, .cls-25, .cls-26, .cls-27, .cls-28, .cls-29, .cls-30, .cls-31, .cls-32, .cls-33, .cls-34, .cls-35, .cls-36, .cls-37, .cls-38, .cls-39, .cls-40, .cls-41, .cls-42, .cls-43, .cls-44, .cls-45, .cls-46, .cls-47 {
        stroke-width: 0px;
      }

      .cls-2, .cls-7, .cls-8, .cls-9, .cls-12, .cls-15, .cls-18, .cls-19, .cls-21, .cls-28, .cls-30, .cls-48, .cls-33, .cls-37, .cls-38, .cls-42, .cls-45, .cls-46 {
        mix-blend-mode: multiply;
      }

      .cls-49 {
        filter: url(#luminosity-noclip-17);
      }

      .cls-50 {
        mask: url(#mask-23);
      }

      .cls-3 {
        fill: url(#linear-gradient-19);
      }

      .cls-4 {
        fill: url(#linear-gradient-33);
      }

      .cls-5 {
        fill: url(#linear-gradient);
      }

      .cls-51 {
        mask: url(#mask-10);
      }

      .cls-6 {
        fill: #020202;
      }

      .cls-7 {
        fill: url(#linear-gradient-38);
      }

      .cls-8 {
        fill: url(#linear-gradient-12);
      }

      .cls-52 {
        filter: url(#luminosity-noclip-7);
      }

      .cls-9 {
        fill: url(#linear-gradient-16);
      }

      .cls-53 {
        filter: url(#luminosity-noclip-13);
      }

      .cls-54 {
        mask: url(#mask-17);
      }

      .cls-10 {
        fill: url(#linear-gradient-6);
      }

      .cls-11 {
        fill: url(#linear-gradient-24);
      }

      .cls-11, .cls-14, .cls-15, .cls-17, .cls-18, .cls-20, .cls-24, .cls-25, .cls-27, .cls-48, .cls-32, .cls-33, .cls-36, .cls-41, .cls-43, .cls-55 {
        opacity: .5;
      }

      .cls-11, .cls-14, .cls-17, .cls-20, .cls-24, .cls-25, .cls-27, .cls-56, .cls-32, .cls-36, .cls-41, .cls-43, .cls-55 {
        mix-blend-mode: screen;
      }

      .cls-57 {
        filter: url(#luminosity-noclip-5);
      }

      .cls-12 {
        fill: url(#linear-gradient-25);
      }

      .cls-58 {
        mask: url(#mask-2);
      }

      .cls-59 {
        isolation: isolate;
      }

      .cls-14 {
        fill: url(#linear-gradient-17);
      }

      .cls-15 {
        fill: url(#linear-gradient-36);
      }

      .cls-60 {
        mask: url(#mask-13);
      }

      .cls-16 {
        fill: url(#linear-gradient-15);
      }

      .cls-17 {
        fill: url(#linear-gradient-32);
      }

      .cls-61 {
        mask: url(#mask-3);
      }

      .cls-62 {
        filter: url(#luminosity-noclip-15);
      }

      .cls-18 {
        fill: url(#linear-gradient-14);
      }

      .cls-19 {
        fill: url(#linear-gradient-29);
      }

      .cls-20 {
        fill: url(#linear-gradient-11);
      }

      .cls-63 {
        mask: url(#mask-9);
      }

      .cls-21 {
        fill: url(#linear-gradient-4);
      }

      .cls-22 {
        fill: url(#linear-gradient-41);
      }

      .cls-64 {
        mask: url(#mask-12);
      }

      .cls-65 {
        mask: url(#mask-5);
      }

      .cls-23 {
        fill: url(#linear-gradient-43);
      }

      .cls-24 {
        fill: url(#linear-gradient-13);
      }

      .cls-66 {
        filter: url(#luminosity-noclip-21);
      }

      .cls-25 {
        fill: url(#linear-gradient-3);
      }

      .cls-26 {
        fill: url(#linear-gradient-20);
      }

      .cls-67 {
        mask: url(#mask-20);
      }

      .cls-27 {
        fill: url(#linear-gradient-5);
      }

      .cls-68 {
        filter: url(#luminosity-noclip-9);
      }

      .cls-28 {
        fill: url(#linear-gradient-31);
      }

      .cls-69 {
        mask: url(#mask-8);
      }

      .cls-29 {
        fill: #221f1f;
      }

      .cls-30 {
        fill: url(#linear-gradient-34);
      }

      .cls-31 {
        fill: url(#linear-gradient-7);
      }

      .cls-32 {
        fill: url(#linear-gradient-22);
      }

      .cls-70 {
        mask: url(#mask-4);
      }

      .cls-71 {
        mask: url(#mask-19);
      }

      .cls-72 {
        mask: url(#mask-15);
      }

      .cls-33 {
        fill: url(#linear-gradient-40);
      }

      .cls-34 {
        fill: url(#linear-gradient-9);
      }

      .cls-35 {
        fill: url(#linear-gradient-27);
      }

      .cls-36 {
        fill: url(#linear-gradient-39);
      }

      .cls-37 {
        fill: url(#linear-gradient-10);
      }

      .cls-38 {
        fill: url(#linear-gradient-26);
      }

      .cls-73 {
        mask: url(#mask-6);
      }

      .cls-74 {
        mask: url(#mask-16);
      }

      .cls-39 {
        fill: url(#linear-gradient-8);
      }

      .cls-75 {
        mask: url(#mask-18);
      }

      .cls-40 {
        fill: url(#linear-gradient-18);
      }

      .cls-41 {
        fill: url(#linear-gradient-30);
      }

      .cls-76 {
        filter: url(#luminosity-noclip);
      }

      .cls-77 {
        mask: url(#mask-1);
      }

      .cls-78 {
        mask: url(#mask);
      }

      .cls-79 {
        filter: url(#luminosity-noclip-23);
      }

      .cls-80 {
        mask: url(#mask-22);
      }

      .cls-42 {
        fill: url(#linear-gradient-2);
      }

      .cls-81 {
        mask: url(#mask-7);
      }

      .cls-43 {
        fill: url(#linear-gradient-35);
      }

      .cls-44 {
        fill: url(#linear-gradient-28);
      }

      .cls-45 {
        fill: url(#linear-gradient-21);
      }

      .cls-46 {
        fill: url(#linear-gradient-42);
      }

      .cls-82 {
        mask: url(#mask-14);
      }

      .cls-83 {
        filter: url(#luminosity-noclip-19);
      }

      .cls-84 {
        mask: url(#mask-21);
      }

      .cls-85 {
        mask: url(#mask-11);
      }

      .cls-47 {
        fill: url(#linear-gradient-37);
      }

      .cls-86 {
        filter: url(#luminosity-noclip-3);
      }
    </style>
    <linearGradient id="linear-gradient" x1="1.31" y1="11.77" x2="5.89" y2="11.77" gradientUnits="userSpaceOnUse">
      <stop offset="0" stop-color="#a4a6a9"/>
      <stop offset=".04" stop-color="#939598"/>
      <stop offset=".15" stop-color="#707274"/>
      <stop offset=".26" stop-color="#57595a"/>
      <stop offset=".35" stop-color="#484a4b"/>
      <stop offset=".42" stop-color="#434546"/>
      <stop offset=".77" stop-color="#282626"/>
      <stop offset=".85" stop-color="#221f1f"/>
    </linearGradient>
    <filter id="luminosity-noclip" x=".75" y="10.86" width="5.78" height="1.84" color-interpolation-filters="sRGB" filterUnits="userSpaceOnUse">
      <feFlood flood-color="#fff" result="bg"/>
      <feBlend in="SourceGraphic" in2="bg"/>
    </filter>
    <filter id="luminosity-noclip-2" x=".75" y="-8170.43" width="5.78" height="32766" color-interpolation-filters="sRGB" filterUnits="userSpaceOnUse">
      <feFlood flood-color="#fff" result="bg"/>
      <feBlend in="SourceGraphic" in2="bg"/>
    </filter>
    <mask id="mask-1" x=".75" y="-8170.43" width="5.78" height="32766" maskUnits="userSpaceOnUse"/>
    <linearGradient id="linear-gradient-2" x1=".86" y1="11.77" x2="4.21" y2="11.77" gradientUnits="userSpaceOnUse">
      <stop offset="0" stop-color="#fff"/>
      <stop offset=".13" stop-color="#dfdfdf"/>
      <stop offset=".41" stop-color="#8f8f8f"/>
      <stop offset=".83" stop-color="#101010"/>
      <stop offset=".88" stop-color="#000"/>
    </linearGradient>
    <mask id="mask" x=".75" y="10.86" width="5.78" height="1.84" maskUnits="userSpaceOnUse">
      <g class="cls-76">
        <g class="cls-77">
          <polygon class="cls-42" points="5.28 11.15 4.42 10.86 4.15 11.12 3.64 11.12 3.13 11.12 2.61 10.9 2.01 11.15 .75 12.43 3.7 12.69 6.53 12.43 5.28 11.15"/>
        </g>
      </g>
    </mask>
    <linearGradient id="linear-gradient-3" x1=".86" y1="11.77" x2="4.21" y2="11.77" gradientUnits="userSpaceOnUse">
      <stop offset="0" stop-color="#fff"/>
      <stop offset=".17" stop-color="#dfe0e0"/>
      <stop offset=".54" stop-color="#909192"/>
      <stop offset=".88" stop-color="#434546"/>
    </linearGradient>
    <filter id="luminosity-noclip-3" x="1.24" y="11.05" width="1.51" height="1.49" color-interpolation-filters="sRGB" filterUnits="userSpaceOnUse">
      <feFlood flood-color="#fff" result="bg"/>
      <feBlend in="SourceGraphic" in2="bg"/>
    </filter>
    <filter id="luminosity-noclip-4" x="1.24" y="-8170.43" width="1.51" height="32766" color-interpolation-filters="sRGB" filterUnits="userSpaceOnUse">
      <feFlood flood-color="#fff" result="bg"/>
      <feBlend in="SourceGraphic" in2="bg"/>
    </filter>
    <mask id="mask-3" x="1.24" y="-8170.43" width="1.51" height="32766" maskUnits="userSpaceOnUse"/>
    <linearGradient id="linear-gradient-4" x1="1.99" y1="12.4" x2="1.99" y2="10.96" xlink:href="#linear-gradient-2"/>
    <mask id="mask-2" x="1.24" y="11.05" width="1.51" height="1.49" maskUnits="userSpaceOnUse">
      <g class="cls-86">
        <g class="cls-61">
          <path class="cls-21" d="m2.28,11.05c-.36.45-1,1.36-1.04,1.42l.87.08c.06-.1.46-1.05.65-1.49-.16,0-.31,0-.47,0Z"/>
        </g>
      </g>
    </mask>
    <linearGradient id="linear-gradient-5" x1="1.99" y1="12.4" x2="1.99" y2="10.96" xlink:href="#linear-gradient-3"/>
    <linearGradient id="linear-gradient-6" x1=".75" y1="12.9" x2="6.54" y2="12.9" gradientUnits="userSpaceOnUse">
      <stop offset="0" stop-color="#a4a6a9"/>
      <stop offset="0" stop-color="#9fa1a4"/>
      <stop offset=".02" stop-color="#828487"/>
      <stop offset=".04" stop-color="#6b6d6f"/>
      <stop offset=".05" stop-color="#595b5c"/>
      <stop offset=".08" stop-color="#4c4e4f"/>
      <stop offset=".11" stop-color="#454748"/>
      <stop offset=".17" stop-color="#434546"/>
      <stop offset=".2" stop-color="#404243"/>
      <stop offset=".42" stop-color="#2f2e2f"/>
      <stop offset=".64" stop-color="#252223"/>
      <stop offset=".85" stop-color="#221f1f"/>
    </linearGradient>
    <linearGradient id="linear-gradient-7" x1=".06" y1="13.48" x2="4.33" y2="13.48" xlink:href="#linear-gradient"/>
    <linearGradient id="linear-gradient-8" x1="0" y1="14.25" x2="7.28" y2="14.25" xlink:href="#linear-gradient"/>
    <linearGradient id="linear-gradient-9" x1="3.42" y1=".03" x2="3.88" y2=".61" xlink:href="#linear-gradient"/>
    <filter id="luminosity-noclip-5" x="3.28" y="0" width=".77" height=".68" color-interpolation-filters="sRGB" filterUnits="userSpaceOnUse">
      <feFlood flood-color="#fff" result="bg"/>
      <feBlend in="SourceGraphic" in2="bg"/>
    </filter>
    <filter id="luminosity-noclip-6" x="3.28" y="-8170.43" width=".77" height="32766" color-interpolation-filters="sRGB" filterUnits="userSpaceOnUse">
      <feFlood flood-color="#fff" result="bg"/>
      <feBlend in="SourceGraphic" in2="bg"/>
    </filter>
    <mask id="mask-5" x="3.28" y="-8170.43" width=".77" height="32766" maskUnits="userSpaceOnUse"/>
    <linearGradient id="linear-gradient-10" x1="3.42" y1=".03" x2="3.88" y2=".61" xlink:href="#linear-gradient-2"/>
    <mask id="mask-4" x="3.28" y="0" width=".77" height=".68" maskUnits="userSpaceOnUse">
      <g class="cls-57">
        <g class="cls-65">
          <path class="cls-37" d="m4.05.34c0,.19-.17.34-.39.34s-.39-.15-.39-.34.17-.34.39-.34.39.15.39.34Z"/>
        </g>
      </g>
    </mask>
    <linearGradient id="linear-gradient-11" x1="3.42" y1=".03" x2="3.88" y2=".61" xlink:href="#linear-gradient-3"/>
    <filter id="luminosity-noclip-7" x="3.28" y="0" width=".61" height=".51" color-interpolation-filters="sRGB" filterUnits="userSpaceOnUse">
      <feFlood flood-color="#fff" result="bg"/>
      <feBlend in="SourceGraphic" in2="bg"/>
    </filter>
    <filter id="luminosity-noclip-8" x="3.28" y="-8170.43" width=".61" height="32766" color-interpolation-filters="sRGB" filterUnits="userSpaceOnUse">
      <feFlood flood-color="#fff" result="bg"/>
      <feBlend in="SourceGraphic" in2="bg"/>
    </filter>
    <mask id="mask-7" x="3.28" y="-8170.43" width=".61" height="32766" maskUnits="userSpaceOnUse"/>
    <linearGradient id="linear-gradient-12" x1="3.41" y1=".04" x2="3.88" y2=".62" xlink:href="#linear-gradient-2"/>
    <mask id="mask-6" x="3.28" y="0" width=".61" height=".51" maskUnits="userSpaceOnUse">
      <g class="cls-52">
        <g class="cls-81">
          <path class="cls-8" d="m3.74.47c.2-.1.18-.38.05-.45-.04-.01-.08-.02-.12-.02-.21,0-.39.15-.39.34,0,0,0,.01,0,.02.03.16.31.18.46.11Z"/>
        </g>
      </g>
    </mask>
    <linearGradient id="linear-gradient-13" x1="3.41" y1=".04" x2="3.88" y2=".62" xlink:href="#linear-gradient-3"/>
    <linearGradient id="linear-gradient-14" x1="3.42" y1=".03" x2="4.1" y2=".88" xlink:href="#linear-gradient"/>
    <linearGradient id="linear-gradient-15" x1="3.67" y1=".46" x2="3.67" y2="1.79" xlink:href="#linear-gradient"/>
    <filter id="luminosity-noclip-9" x="1.78" y=".62" width="3.78" height="2.02" color-interpolation-filters="sRGB" filterUnits="userSpaceOnUse">
      <feFlood flood-color="#fff" result="bg"/>
      <feBlend in="SourceGraphic" in2="bg"/>
    </filter>
    <filter id="luminosity-noclip-10" x="1.78" y="-8170.43" width="3.78" height="32766" color-interpolation-filters="sRGB" filterUnits="userSpaceOnUse">
      <feFlood flood-color="#fff" result="bg"/>
      <feBlend in="SourceGraphic" in2="bg"/>
    </filter>
    <mask id="mask-9" x="1.78" y="-8170.43" width="3.78" height="32766" maskUnits="userSpaceOnUse"/>
    <linearGradient id="linear-gradient-16" x1="2.25" y1="1.63" x2="5.16" y2="1.63" xlink:href="#linear-gradient-2"/>
    <mask id="mask-8" x="1.78" y=".62" width="3.78" height="2.02" maskUnits="userSpaceOnUse">
      <g class="cls-68">
        <g class="cls-63">
          <path class="cls-9" d="m5.56,1.63c0,.56-.85,1.01-1.89,1.01s-1.89-.45-1.89-1.01.85-1.01,1.89-1.01,1.89.45,1.89,1.01Z"/>
        </g>
      </g>
    </mask>
    <linearGradient id="linear-gradient-17" x1="2.25" y1="1.63" x2="5.16" y2="1.63" xlink:href="#linear-gradient-3"/>
    <linearGradient id="linear-gradient-18" x1="2.86" y1=".47" x2="2.86" y2="1.77" xlink:href="#linear-gradient"/>
    <linearGradient id="linear-gradient-19" x1="4.21" y1=".46" x2="4.21" y2="1.79" xlink:href="#linear-gradient"/>
    <linearGradient id="linear-gradient-20" x1="1.97" y1="2.51" x2="5.55" y2="2.51" xlink:href="#linear-gradient"/>
    <filter id="luminosity-noclip-11" x="1.44" y=".77" width="4.41" height="3.48" color-interpolation-filters="sRGB" filterUnits="userSpaceOnUse">
      <feFlood flood-color="#fff" result="bg"/>
      <feBlend in="SourceGraphic" in2="bg"/>
    </filter>
    <filter id="luminosity-noclip-12" x="1.44" y="-8170.43" width="4.41" height="32766" color-interpolation-filters="sRGB" filterUnits="userSpaceOnUse">
      <feFlood flood-color="#fff" result="bg"/>
      <feBlend in="SourceGraphic" in2="bg"/>
    </filter>
    <mask id="mask-11" x="1.44" y="-8170.43" width="4.41" height="32766" maskUnits="userSpaceOnUse"/>
    <linearGradient id="linear-gradient-21" x1="1.95" y1="2.51" x2="3.95" y2="2.51" xlink:href="#linear-gradient-2"/>
    <mask id="mask-10" x="1.44" y=".77" width="4.41" height="3.48" maskUnits="userSpaceOnUse">
      <g class="cls-1">
        <g class="cls-85">
          <path class="cls-45" d="m5.85,1.18c-.09.21-.3.35-.53.35-.31,0-.57-.25-.58-.55h0c-.09.2-.29.33-.52.33-.3,0-.55-.24-.58-.54h0c-.02.29-.27.53-.58.53-.23,0-.43-.14-.52-.33h0c-.02.3-.27.54-.58.54-.23,0-.43-.14-.52-.34h0s1.01,3.08,1.01,3.08h2.4l1.01-3.07h0Z"/>
        </g>
      </g>
    </mask>
    <linearGradient id="linear-gradient-22" x1="1.95" y1="2.51" x2="3.95" y2="2.51" xlink:href="#linear-gradient-3"/>
    <filter id="luminosity-noclip-13" x="2.03" y="1.03" width="1.01" height="3.22" color-interpolation-filters="sRGB" filterUnits="userSpaceOnUse">
      <feFlood flood-color="#fff" result="bg"/>
      <feBlend in="SourceGraphic" in2="bg"/>
    </filter>
    <filter id="luminosity-noclip-14" x="2.03" y="-8170.43" width="1.01" height="32766" color-interpolation-filters="sRGB" filterUnits="userSpaceOnUse">
      <feFlood flood-color="#fff" result="bg"/>
      <feBlend in="SourceGraphic" in2="bg"/>
    </filter>
    <mask id="mask-13" x="2.03" y="-8170.43" width="1.01" height="32766" maskUnits="userSpaceOnUse"/>
    <linearGradient id="linear-gradient-23" x1="2.45" y1="1.39" x2="3.33" y2="5.93" xlink:href="#linear-gradient-2"/>
    <mask id="mask-12" x="2.03" y="1.03" width="1.01" height="3.22" maskUnits="userSpaceOnUse">
      <g class="cls-53">
        <g class="cls-60">
          <path class="cls-2" d="m3.04,4.16c-.02-.23-.02-1.91-.05-2.52-.2-.03-.27-.18-.3-.23-.04-.08-.08-.16-.11-.25-.02-.04-.02-.09-.03-.13,0,.04,0,.08-.01.12,0,.07-.01.15-.04.21,0,.01,0,.02,0,.04-.05.23-.26.34-.47.34.17.62.64,2.26.68,2.5h.33s0-.06,0-.09Z"/>
        </g>
      </g>
    </mask>
    <linearGradient id="linear-gradient-24" x1="2.45" y1="1.39" x2="3.33" y2="5.93" xlink:href="#linear-gradient-3"/>
    <linearGradient id="linear-gradient-25" x1="1.44" y1="1.29" x2="5.85" y2="1.29" xlink:href="#linear-gradient"/>
    <linearGradient id="linear-gradient-26" x1="1.44" y1="1.37" x2="5.85" y2="1.37" xlink:href="#linear-gradient"/>
    <linearGradient id="linear-gradient-27" x1="2.08" y1="4.38" x2="4.7" y2="4.38" gradientUnits="userSpaceOnUse">
      <stop offset="0" stop-color="#a4a6a9"/>
      <stop offset="0" stop-color="#9b9da0"/>
      <stop offset=".05" stop-color="#7b7b7d"/>
      <stop offset=".1" stop-color="#5f5e60"/>
      <stop offset=".15" stop-color="#484748"/>
      <stop offset=".21" stop-color="#373535"/>
      <stop offset=".28" stop-color="#2b2828"/>
      <stop offset=".37" stop-color="#242121"/>
      <stop offset=".56" stop-color="#221f1f"/>
    </linearGradient>
    <linearGradient id="linear-gradient-28" x1="2.01" y1="8.03" x2="6.31" y2="8.03" xlink:href="#linear-gradient"/>
    <filter id="luminosity-noclip-15" x="1.49" y="5.23" width="4.3" height="5.6" color-interpolation-filters="sRGB" filterUnits="userSpaceOnUse">
      <feFlood flood-color="#fff" result="bg"/>
      <feBlend in="SourceGraphic" in2="bg"/>
    </filter>
    <filter id="luminosity-noclip-16" x="1.49" y="-8170.43" width="4.3" height="32766" color-interpolation-filters="sRGB" filterUnits="userSpaceOnUse">
      <feFlood flood-color="#fff" result="bg"/>
      <feBlend in="SourceGraphic" in2="bg"/>
    </filter>
    <mask id="mask-15" x="1.49" y="-8170.43" width="4.3" height="32766" maskUnits="userSpaceOnUse"/>
    <linearGradient id="linear-gradient-29" x1="1.93" y1="8.03" x2="4.03" y2="8.03" xlink:href="#linear-gradient-2"/>
    <mask id="mask-14" x="1.49" y="5.23" width="4.3" height="5.6" maskUnits="userSpaceOnUse">
      <g class="cls-62">
        <g class="cls-72">
          <path class="cls-19" d="m4.87,5.23h-1.23s-1.22,0-1.22,0c0,0,1.07,1.4-.92,5.44l1.98.16h.39l1.93-.16c-2-4.04-.92-5.44-.92-5.44Z"/>
        </g>
      </g>
    </mask>
    <linearGradient id="linear-gradient-30" x1="1.93" y1="8.03" x2="4.03" y2="8.03" xlink:href="#linear-gradient-3"/>
    <filter id="luminosity-noclip-17" x="1.81" y="5.22" width="1.44" height="5.53" color-interpolation-filters="sRGB" filterUnits="userSpaceOnUse">
      <feFlood flood-color="#fff" result="bg"/>
      <feBlend in="SourceGraphic" in2="bg"/>
    </filter>
    <filter id="luminosity-noclip-18" x="1.81" y="-8170.43" width="1.44" height="32766" color-interpolation-filters="sRGB" filterUnits="userSpaceOnUse">
      <feFlood flood-color="#fff" result="bg"/>
      <feBlend in="SourceGraphic" in2="bg"/>
    </filter>
    <mask id="mask-17" x="1.81" y="-8170.43" width="1.44" height="32766" maskUnits="userSpaceOnUse"/>
    <linearGradient id="linear-gradient-31" x1="2.52" y1="11.58" x2="2.52" y2="4.43" xlink:href="#linear-gradient-2"/>
    <mask id="mask-16" x="1.81" y="5.22" width="1.44" height="5.53" maskUnits="userSpaceOnUse">
      <g class="cls-49">
        <g class="cls-54">
          <path class="cls-28" d="m1.81,10.68l.94.08c.14-.36.43-2.43.47-2.93.11-1.47-.21-2.6-.29-2.6h-.29c.33.22.4,1.9.09,3.01-.23.85-.46,1.68-.93,2.44Z"/>
        </g>
      </g>
    </mask>
    <linearGradient id="linear-gradient-32" x1="2.52" y1="11.58" x2="2.52" y2="4.43" xlink:href="#linear-gradient-3"/>
    <linearGradient id="linear-gradient-33" x1="2.28" y1="4.69" x2="5.01" y2="4.69" xlink:href="#linear-gradient-6"/>
    <filter id="luminosity-noclip-19" x="2.48" y="4.5" width=".51" height=".37" color-interpolation-filters="sRGB" filterUnits="userSpaceOnUse">
      <feFlood flood-color="#fff" result="bg"/>
      <feBlend in="SourceGraphic" in2="bg"/>
    </filter>
    <filter id="luminosity-noclip-20" x="2.48" y="-8170.43" width=".51" height="32766" color-interpolation-filters="sRGB" filterUnits="userSpaceOnUse">
      <feFlood flood-color="#fff" result="bg"/>
      <feBlend in="SourceGraphic" in2="bg"/>
    </filter>
    <mask id="mask-19" x="2.48" y="-8170.43" width=".51" height="32766" maskUnits="userSpaceOnUse"/>
    <linearGradient id="linear-gradient-34" x1="2.73" y1="4.43" x2="2.73" y2="4.88" xlink:href="#linear-gradient-2"/>
    <mask id="mask-18" x="2.48" y="4.5" width=".51" height=".37" maskUnits="userSpaceOnUse">
      <g class="cls-83">
        <g class="cls-71">
          <path class="cls-30" d="m2.9,4.81c-.06-.13,0-.23.09-.31h-.36c-.1.04-.19.12-.14.25.02.04.04.08.07.12h.37s-.02-.04-.03-.06Z"/>
        </g>
      </g>
    </mask>
    <linearGradient id="linear-gradient-35" x1="2.73" y1="4.43" x2="2.73" y2="4.88" xlink:href="#linear-gradient-3"/>
    <linearGradient id="linear-gradient-36" x1="2.28" y1="4.78" x2="5.01" y2="4.78" xlink:href="#linear-gradient-6"/>
    <linearGradient id="linear-gradient-37" x1="2.26" y1="5.05" x2="5.03" y2="5.05" xlink:href="#linear-gradient-6"/>
    <filter id="luminosity-noclip-21" x="2.44" y="4.87" width=".49" height=".37" color-interpolation-filters="sRGB" filterUnits="userSpaceOnUse">
      <feFlood flood-color="#fff" result="bg"/>
      <feBlend in="SourceGraphic" in2="bg"/>
    </filter>
    <filter id="luminosity-noclip-22" x="2.44" y="-8170.43" width=".49" height="32766" color-interpolation-filters="sRGB" filterUnits="userSpaceOnUse">
      <feFlood flood-color="#fff" result="bg"/>
      <feBlend in="SourceGraphic" in2="bg"/>
    </filter>
    <mask id="mask-21" x="2.44" y="-8170.43" width=".49" height="32766" maskUnits="userSpaceOnUse"/>
    <linearGradient id="linear-gradient-38" x1="2.68" y1="4.79" x2="2.68" y2="5.32" xlink:href="#linear-gradient-2"/>
    <mask id="mask-20" x="2.44" y="4.87" width=".49" height=".37" maskUnits="userSpaceOnUse">
      <g class="cls-66">
        <g class="cls-84">
          <path class="cls-7" d="m2.84,5.13c-.02-.05-.01-.12,0-.17.02-.04.05-.07.08-.09h-.38c-.17.09-.13.27-.02.37h.38s-.06-.06-.08-.11Z"/>
        </g>
      </g>
    </mask>
    <linearGradient id="linear-gradient-39" x1="2.68" y1="4.79" x2="2.68" y2="5.32" xlink:href="#linear-gradient-3"/>
    <linearGradient id="linear-gradient-40" x1="2.26" y1="5.15" x2="5.03" y2="5.15" xlink:href="#linear-gradient-6"/>
    <linearGradient id="linear-gradient-41" x1="1.49" y1="10.91" x2="5.79" y2="10.91" xlink:href="#linear-gradient-6"/>
    <filter id="luminosity-noclip-23" x=".49" y="13.62" width="1.67" height="1.21" color-interpolation-filters="sRGB" filterUnits="userSpaceOnUse">
      <feFlood flood-color="#fff" result="bg"/>
      <feBlend in="SourceGraphic" in2="bg"/>
    </filter>
    <filter id="luminosity-noclip-24" x=".49" y="-8170.43" width="1.67" height="32766" color-interpolation-filters="sRGB" filterUnits="userSpaceOnUse">
      <feFlood flood-color="#fff" result="bg"/>
      <feBlend in="SourceGraphic" in2="bg"/>
    </filter>
    <mask id="mask-23" x=".49" y="-8170.43" width="1.67" height="32766" maskUnits="userSpaceOnUse"/>
    <linearGradient id="linear-gradient-42" x1="1.3" y1="14.93" x2="1.36" y2="12.77" gradientUnits="userSpaceOnUse">
      <stop offset=".08" stop-color="#fff"/>
      <stop offset=".15" stop-color="#dbdbdb"/>
      <stop offset=".27" stop-color="#999"/>
      <stop offset=".39" stop-color="#626262"/>
      <stop offset=".5" stop-color="#383838"/>
      <stop offset=".6" stop-color="#191919"/>
      <stop offset=".68" stop-color="#060606"/>
      <stop offset=".74" stop-color="#000"/>
    </linearGradient>
    <mask id="mask-22" x=".49" y="13.62" width="1.67" height="1.21" maskUnits="userSpaceOnUse">
      <g class="cls-79">
        <g class="cls-50">
          <path class="cls-46" d="m1.37,13.62c-.35.09-.81.6-.88,1.21h1.32c0-.38.06-.93.35-1.21h-.79Z"/>
        </g>
      </g>
    </mask>
    <linearGradient id="linear-gradient-43" x1="1.3" y1="14.93" x2="1.36" y2="12.77" gradientUnits="userSpaceOnUse">
      <stop offset=".08" stop-color="#fff"/>
      <stop offset=".74" stop-color="#fff"/>
    </linearGradient>
  </defs>
  <g class="cls-59">
    <g id="Capa_2" data-name="Capa 2">
      <g id="Layer_1" data-name="Layer 1">
        <g>
          <g>
            <g>
              <polygon class="cls-5" points="5.28 11.15 4.42 10.86 4.15 11.12 3.64 11.12 3.13 11.12 2.61 10.9 2.01 11.15 .75 12.43 3.7 12.69 6.53 12.43 5.28 11.15"/>
              <g class="cls-78">
                <polygon class="cls-25" points="5.28 11.15 4.42 10.86 4.15 11.12 3.64 11.12 3.13 11.12 2.61 10.9 2.01 11.15 .75 12.43 3.7 12.69 6.53 12.43 5.28 11.15"/>
              </g>
              <g class="cls-58">
                <path class="cls-27" d="m2.28,11.05c-.36.45-1,1.36-1.04,1.42l.87.08c.06-.1.46-1.05.65-1.49-.16,0-.31,0-.47,0Z"/>
              </g>
              <path class="cls-13" d="m5.21,12.55l1.32-.12-1.25-1.28-.67-.22c.34.49.59,1.07.6,1.63Z"/>
              <polygon class="cls-10" points=".75 12.43 .75 12.43 1.18 13.28 3.13 13.38 4.15 13.38 6.1 13.28 6.54 12.43 6.53 12.43 .75 12.43"/>
              <path class="cls-13" d="m6.53,12.43h-1.33c-.29.32-.67.57-1.06.72-.28.11-.57.16-.87.2-.07,0-.13.02-.2.03h.05s1.02,0,1.02,0l1.95-.1.43-.85h0Z"/>
            </g>
            <g>
              <path class="cls-31" d="m6.37,13.57c0-.16-.13-.29-.28-.29H1.19c-.16,0-.28.13-.28.29,0,.03,0,.09,0,.11h5.45s0-.09,0-.11Z"/>
              <g class="cls-48">
                <path class="cls-29" d="m6.37,13.52H.91s0,.03,0,.04c0,.03,0,.09,0,.11h5.45s0-.09,0-.11c0-.01,0-.03,0-.04Z"/>
              </g>
              <path class="cls-39" d="m7.28,14.85c0-.67-.42-1.21-.93-1.21H.93c-.51,0-.93.54-.93,1.21,0,0,0,0,0,0h7.28Z"/>
              <path class="cls-6" d="m6.35,13.64h-1.21c-.4.48-1.31.77-1.74.9-.47.15-.97.26-1.47.31h5.35c0-.67-.42-1.21-.93-1.21Z"/>
            </g>
            <g>
              <path class="cls-34" d="m4.05.34c0,.19-.17.34-.39.34s-.39-.15-.39-.34.17-.34.39-.34.39.15.39.34Z"/>
              <g class="cls-70">
                <path class="cls-20" d="m4.05.34c0,.19-.17.34-.39.34s-.39-.15-.39-.34.17-.34.39-.34.39.15.39.34Z"/>
              </g>
              <g class="cls-73">
                <path class="cls-24" d="m3.74.47c.2-.1.18-.38.05-.45-.04-.01-.08-.02-.12-.02-.21,0-.39.15-.39.34,0,0,0,.01,0,.02.03.16.31.18.46.11Z"/>
              </g>
              <path class="cls-18" d="m3.84.03s0,0,0,0c.12.08.14.34,0,.46-.07.06-.16.1-.25.11-.04,0-.08,0-.12,0-.03,0-.09-.02-.11-.05.07.08.18.13.3.13.21,0,.39-.15.39-.34,0-.14-.09-.25-.22-.31Z"/>
              <path class="cls-16" d="m5.56,1.63c0,.56-.85,1.01-1.89,1.01s-1.89-.45-1.89-1.01.85-1.01,1.89-1.01,1.89.45,1.89,1.01Z"/>
              <g class="cls-69">
                <path class="cls-14" d="m5.56,1.63c0,.56-.85,1.01-1.89,1.01s-1.89-.45-1.89-1.01.85-1.01,1.89-1.01,1.89.45,1.89,1.01Z"/>
              </g>
              <g class="cls-56">
                <path class="cls-40" d="m2.48,1.61c0-.51.55-.92,1.26-.98-.05,0-.1,0-.15,0-.78,0-1.62.54-1.62,1.08s.84.89,1.62.89c.05,0,.1,0,.15,0-.71-.05-1.26-.47-1.26-.98Z"/>
              </g>
              <g class="cls-48">
                <path class="cls-3" d="m3.74.62c.64.16,1.08.51,1.08.91,0,.56-.85,1.01-1.89,1.01-.02,0-.05,0-.07,0,.25.06.52.1.81.1,1.04,0,1.89-.45,1.89-1.01s-.81-.99-1.82-1.01Z"/>
              </g>
              <path class="cls-26" d="m5.85,1.18c-.09.21-.3.35-.53.35-.31,0-.57-.25-.58-.55h0c-.09.2-.29.33-.52.33-.3,0-.55-.24-.58-.54h0c-.02.29-.27.53-.58.53-.23,0-.43-.14-.52-.33h0c-.02.3-.27.54-.58.54-.23,0-.43-.14-.52-.34h0s1.01,3.08,1.01,3.08h2.4l1.01-3.07h0Z"/>
              <g class="cls-51">
                <path class="cls-32" d="m5.85,1.18c-.09.21-.3.35-.53.35-.31,0-.57-.25-.58-.55h0c-.09.2-.29.33-.52.33-.3,0-.55-.24-.58-.54h0c-.02.29-.27.53-.58.53-.23,0-.43-.14-.52-.33h0c-.02.3-.27.54-.58.54-.23,0-.43-.14-.52-.34h0s1.01,3.08,1.01,3.08h2.4l1.01-3.07h0Z"/>
              </g>
              <g class="cls-64">
                <path class="cls-11" d="m3.04,4.16c-.02-.23-.02-1.91-.05-2.52-.2-.03-.27-.18-.3-.23-.04-.08-.08-.16-.11-.25-.02-.04-.02-.09-.03-.13,0,.04,0,.08-.01.12,0,.07-.01.15-.04.21,0,.01,0,.02,0,.04-.05.23-.26.34-.47.34.17.62.64,2.26.68,2.5h.33s0-.06,0-.09Z"/>
              </g>
              <path class="cls-13" d="m5.85,1.18c-.09.21-.3.35-.53.35-.31,0-.56-.25-.58-.55,0,.15-.05.31-.08.46-.06.3-.13.6-.21.9-.14.52-.35,1.13-.75,1.5-.19.18-.48.35-.77.42h1.9l1.01-3.07h0Z"/>
              <g>
                <path class="cls-12" d="m3.13,1.65c.46-.05.5-.58.5-.8,0,0,.07.77.53.79.4.02.57-.61.57-.61,0,0-.02.66.36.78.33.1.62-.33.73-.54l.03-.08h0c-.09.2-.3.35-.53.35-.31,0-.57-.25-.58-.55h0c-.09.2-.29.33-.52.33-.3,0-.55-.24-.58-.54h0c-.02.29-.27.53-.58.53-.23,0-.43-.14-.52-.33,0,0,.06.74.58.68Z"/>
                <path class="cls-38" d="m2.04,1.76c.41-.01.54-.42.51-.79h0c-.02.3-.27.54-.58.54-.23,0-.43-.14-.52-.34h0c.1.21.31.59.6.58Z"/>
              </g>
            </g>
            <path class="cls-35" d="m4.84,4.25h-2.38c.1.05.1.22-.01.26h2.39c-.11-.05-.11-.21,0-.26Z"/>
            <path class="cls-44" d="m4.87,5.23h-1.23s-1.22,0-1.22,0c0,0,1.07,1.4-.92,5.44l1.98.16h.39l1.93-.16c-2-4.04-.92-5.44-.92-5.44Z"/>
            <g class="cls-82">
              <path class="cls-41" d="m4.87,5.23h-1.23s-1.22,0-1.22,0c0,0,1.07,1.4-.92,5.44l1.98.16h.39l1.93-.16c-2-4.04-.92-5.44-.92-5.44Z"/>
            </g>
            <g class="cls-74">
              <path class="cls-17" d="m1.81,10.68l.94.08c.14-.36.43-2.43.47-2.93.11-1.47-.21-2.6-.29-2.6h-.29c.33.22.4,1.9.09,3.01-.23.85-.46,1.68-.93,2.44Z"/>
            </g>
            <path class="cls-13" d="m4.26,5.23c-.07.09-.13.17-.19.27-.16.28-.25.61-.27.93-.05.78.13,1.55.4,2.28.24.64.6,1.34.52,2.05l1.08-.09c-2-4.04-.92-5.44-.92-5.44h-.61Z"/>
            <path class="cls-4" d="m4.82,4.87h-2.36c-.1,0-.19-.08-.19-.19s.08-.18.19-.18h2.36c.1,0,.19.08.19.18s-.08.19-.19.19Z"/>
            <g class="cls-75">
              <path class="cls-43" d="m2.9,4.81c-.06-.13,0-.23.09-.31h-.36c-.1.04-.19.12-.14.25.02.04.04.08.07.12h.37s-.02-.04-.03-.06Z"/>
            </g>
            <path class="cls-15" d="m2.28,4.69s0,0,0,0c0,.1.08.19.19.19h2.36c.1,0,.19-.08.19-.19h0s-2.73,0-2.73,0Z"/>
            <path class="cls-47" d="m4.84,5.24h-2.4c-.1,0-.19-.08-.19-.18s.08-.19.19-.19h2.4c.1,0,.19.08.19.19s-.08.18-.19.18Z"/>
            <g class="cls-67">
              <path class="cls-36" d="m2.84,5.13c-.02-.05-.01-.12,0-.17.02-.04.05-.07.08-.09h-.38c-.17.09-.13.27-.02.37h.38s-.06-.06-.08-.11Z"/>
            </g>
            <path class="cls-33" d="m2.33,5.07s-.05,0-.07,0c0,.1.08.17.18.17h2.4c.1,0,.17-.07.18-.17h-2.69Z"/>
            <polygon class="cls-22" points="5.28 11.15 2.01 11.15 1.49 10.67 5.79 10.67 5.28 11.15"/>
            <path class="cls-13" d="m4.72,10.67c-.23.22-.68.37-.96.48h1.52l.51-.48h-1.07Z"/>
          </g>
          <g class="cls-55">
            <g class="cls-80">
              <path class="cls-23" d="m1.37,13.62c-.35.09-.81.6-.88,1.21h1.32c0-.38.06-.93.35-1.21h-.79Z"/>
            </g>
          </g>
        </g>
      </g>
    </g>
  </g>
</svg>